<svg id="Слой_1" data-name="Слой 1" xmlns="http://www.w3.org/2000/svg" viewBox="0 0 14.13 14.11"><path d="M152.45,381.67a1.77,1.77,0,1,0-1.93-2.33c0,.08-.07.16-.1.25v.66c0,.08.07.16.1.25A1.77,1.77,0,0,0,152.45,381.67Zm-.21-2.63a.88.88,0,0,1,.83.92.89.89,0,0,1-1.77-.08A.89.89,0,0,1,152.24,379Z" transform="translate(-150.42 -372.87)"/><path d="M152.37,383.46a1.76,1.76,0,0,0-1.87,1.23,1.54,1.54,0,0,1-.08.19v.67a2,2,0,0,0,.77,1.12,5.65,5.65,0,0,0,.66.31h.67l.19-.08a1.76,1.76,0,0,0-.34-3.44Zm-.18,2.64a.89.89,0,1,1,.88-.88A.89.89,0,0,1,152.19,386.1Z" transform="translate(-150.42 -372.87)"/><path d="M151.85,376.23a.43.43,0,0,0,.74-.12c.16-.29.3-.59.45-.89.28-.57.58-1.14.85-1.72a.43.43,0,0,0-.47-.63.55.55,0,0,0-.33.29c-.35.66-.68,1.33-1,2l-.07,0-.7-.7c-.35-.35-.56-.35-.88,0v.33C150.89,375.27,151.36,375.75,151.85,376.23Z" transform="translate(-150.42 -372.87)"/><path d="M155.24,375.06h8.9a.45.45,0,0,0,.41-.45.45.45,0,0,0-.42-.43h-8.9a.43.43,0,0,0-.39.43A.43.43,0,0,0,155.24,375.06Z" transform="translate(-150.42 -372.87)"/><path d="M164,379.48h-8.6c-.35,0-.55.16-.55.43s.19.45.54.45H164c.37,0,.57-.17.57-.45S164.34,379.48,164,379.48Z" transform="translate(-150.42 -372.87)"/><path d="M164.14,384.78h-8.68a1,1,0,0,0-.25,0,.41.41,0,0,0-.37.41.44.44,0,0,0,.36.46h8.93a.45.45,0,0,0,.42-.43A.44.44,0,0,0,164.14,384.78Z" transform="translate(-150.42 -372.87)"/></svg>