<svg id="Слой_1" data-name="Слой 1" xmlns="http://www.w3.org/2000/svg" viewBox="0 0 18.01 12.82"><defs><style>.cls-1{fill:#31a0d5;}</style></defs><path class="cls-1" d="M351.55,479.39c0-.25,0-.45,0-.66a.49.49,0,0,1,.32-.49,6.86,6.86,0,0,1,3.32-.46,8.24,8.24,0,0,1,3.76,1.4.25.25,0,0,0,.33,0,8.3,8.3,0,0,1,3.77-1.39,6.62,6.62,0,0,1,3.29.45.48.48,0,0,1,.34.5v0c0,.21-.05.49.06.6s.4,0,.6,0h.21c.41,0,.57.16.57.57v10c0,.4-.18.56-.62.56H350.79c-.54,0-.68-.14-.68-.68V480c0-.43.16-.59.6-.59Zm.92,8.88a7.77,7.77,0,0,1,6.17.94,1.25,1.25,0,0,0,0-.15q0-4.41,0-8.82a.34.34,0,0,0-.15-.26,16.65,16.65,0,0,0-1.62-.85,6.32,6.32,0,0,0-4.16-.23c-.2.06-.25.15-.25.36v9Zm13.27,0c0-.07,0-.1,0-.13v-9c0-.13-.05-.19-.16-.21a11.74,11.74,0,0,0-1.18-.24,7,7,0,0,0-4.65,1.25.34.34,0,0,0-.19.35V489c0,.06,0,.13,0,.22A7.79,7.79,0,0,1,365.74,488.26Zm.94-7.94v8.5c0,.45-.28.66-.68.5a6.26,6.26,0,0,0-4.51,0c-.22.07-.42.17-.63.26v0h6.31v-9.3Zm-15.63,9.3h6.34l-.07-.06a6.38,6.38,0,0,0-5-.28c-.56.21-.81,0-.81-.56v-8.4h-.5Z" transform="translate(-350.11 -477.74)"/></svg>