<svg id="Слой_1" data-name="Слой 1" xmlns="http://www.w3.org/2000/svg" viewBox="0 0 14.98 11.78"><defs><style>.cls-1{fill:#3b3387;}</style></defs><path class="cls-1" d="M366.6,482.47a1,1,0,0,0-.82-1,3.08,3.08,0,0,0-.53,0h-1.86c0-.56,0-1.09,0-1.63a1.59,1.59,0,0,0-1.57-1.58c-2.87,0-5.74,0-8.61,0a1.59,1.59,0,0,0-1.56,1.32,3.25,3.25,0,0,0,0,.54c0,2.43,0,4.87,0,7.3a2.58,2.58,0,0,0,2.26,2.57,10.55,10.55,0,0,0,1.38,0h9.19a2.13,2.13,0,0,0,2.14-2.07C366.61,486.1,366.61,484.29,366.6,482.47ZM362,488.92h-7.62a1.56,1.56,0,0,1-1.64-1.64V479.9a.54.54,0,0,1,.62-.61h8.39c.42,0,.62.2.62.63,0,2.48,0,5,0,7.44a2.7,2.7,0,0,0,.31,1.56Zm3.58-1.08a1.07,1.07,0,0,1-.75,1,1,1,0,0,1-1.19-.41,1.17,1.17,0,0,1-.19-.56c0-1.78,0-3.56,0-5.33,0,0,0,0,0-.06h2.13v5.33Z" transform="translate(-351.62 -478.22)"/><path class="cls-1" d="M355.43,482.5h4.16a.54.54,0,1,0,0-1.07h-4.16a.54.54,0,1,0,0,1.07Z" transform="translate(-351.62 -478.22)"/><path class="cls-1" d="M355.37,484.64h4.39a.55.55,0,0,0,.42-.59.54.54,0,0,0-.55-.47h-4.24a.39.39,0,0,0-.15,0,.52.52,0,0,0-.4.57A.53.53,0,0,0,355.37,484.64Z" transform="translate(-351.62 -478.22)"/><path class="cls-1" d="M359.63,485.71h-4.24a.39.39,0,0,0-.15,0,.52.52,0,0,0-.4.57.53.53,0,0,0,.53.48h4.21a.68.68,0,0,0,.2,0,.52.52,0,0,0,.4-.57A.54.54,0,0,0,359.63,485.71Z" transform="translate(-351.62 -478.22)"/></svg>