<svg id="Слой_1" data-name="Слой 1" xmlns="http://www.w3.org/2000/svg" viewBox="0 0 6.93 7.8"><defs><style>.cls-1{fill:#463e8f;}</style></defs><path class="cls-1" d="M386.28,398.69a.41.41,0,0,0-.46.05l-4.33,3.46a.46.46,0,0,0-.16.34.44.44,0,0,0,.16.34l4.33,3.47a.46.46,0,0,0,.27.09.41.41,0,0,0,.19,0,.43.43,0,0,0,.25-.39v-6.93A.43.43,0,0,0,386.28,398.69Zm-.62,6.42-3.21-2.57,3.21-2.56Z" transform="translate(-379.59 -398.64)"/><path class="cls-1" d="M380,399.08a.44.44,0,0,0-.44.43v6.07a.44.44,0,0,0,.44.43.43.43,0,0,0,.43-.43v-6.07A.43.43,0,0,0,380,399.08Z" transform="translate(-379.59 -398.64)"/></svg>