<svg id="Слой_1" data-name="Слой 1" xmlns="http://www.w3.org/2000/svg" viewBox="0 0 11.85 11.07"><defs><style>.cls-1{fill:#3d368a;}</style></defs><path class="cls-1" d="M358.37,489.68h.34c.55,0,1.12,0,1.67,0h.27a6.56,6.56,0,0,0,1.26-.11,4,4,0,0,0-.9-7.83h-5.37l-.55,0,.37-.4a.6.6,0,0,0,.11-.12c.07-.07.12-.13.18-.18l.5-.5.85-.85a.56.56,0,1,0-.79-.78l-2.94,2.93a.57.57,0,0,0,0,.93l2.17,2.17.72.71a.75.75,0,0,0,.16.15.57.57,0,0,0,.6.08.46.46,0,0,0,.28-.4.93.93,0,0,0-.23-.57c-.35-.4-.73-.77-1.13-1.16-.17-.15-.33-.32-.5-.48l-.39-.39.55,0h5.44a2.6,2.6,0,0,1,.4,0,2.95,2.95,0,0,1-.45,5.86h-2.64c-.22,0-.58.06-.59.49a.53.53,0,0,0,.13.36A.64.64,0,0,0,358.37,489.68Z" transform="translate(-353.13 -478.61)"/></svg>