<svg id="Слой_1" data-name="Слой 1" xmlns="http://www.w3.org/2000/svg" viewBox="0 0 12.57 11.74"><defs><style>.cls-1{fill:#e83d3e;}</style></defs><path class="cls-1" d="M317.56,442.68H320a6.65,6.65,0,0,0,1.35-.12,4.2,4.2,0,0,0-1-8.29h-5.7l-.57,0,.39-.42.12-.13.18-.19.53-.53.91-.91a.59.59,0,0,0,.07-.9.61.61,0,0,0-.91.08l-3.12,3.11a.6.6,0,0,0,0,1l2.31,2.3.75.75a1.25,1.25,0,0,0,.17.16.64.64,0,0,0,.64.08.51.51,0,0,0,.3-.43,1,1,0,0,0-.25-.6c-.37-.42-.77-.81-1.2-1.22-.17-.17-.35-.34-.52-.52l-.42-.41.59-.05h5.76a3,3,0,0,1,.43,0,3.12,3.12,0,0,1-.48,6.21h-2.8c-.23,0-.61.07-.62.53a.51.51,0,0,0,.14.38A.66.66,0,0,0,317.56,442.68Z" transform="translate(-312 -430.95)"/></svg>