<svg id="Слой_1" data-name="Слой 1" xmlns="http://www.w3.org/2000/svg" viewBox="0 0 16.07 12.89"><defs><style>.cls-1{fill:#fff;}</style></defs><path class="cls-1" d="M316.33,443.05l-5.83-5.83a.39.39,0,0,1-.08-.1v0l0-.05,0,0s0,0,0,0l0-.06v0a.41.41,0,0,1,0-.11h0a.49.49,0,0,1,0-.12v0l0-.06s0,0,0,0l0,0,0-.06h0a.39.39,0,0,1,.08-.1l5.83-5.83a.62.62,0,0,1,.87,0,.63.63,0,0,1,0,.88l-4.77,4.77h13.34a.62.62,0,0,1,0,1.24H312.43l4.77,4.77a.63.63,0,0,1,0,.88A.62.62,0,0,1,316.33,443.05Z" transform="translate(-310.32 -430.33)"/></svg>