<svg id="Слой_1" data-name="Слой 1" xmlns="http://www.w3.org/2000/svg" viewBox="0 0 18 12.22"><defs><style>.cls-1{fill:#fff;}</style></defs><path class="cls-1" d="M366.65,478H351.58a1.46,1.46,0,0,0-1.46,1.47v9.29a1.46,1.46,0,0,0,1.46,1.46h15.07a1.46,1.46,0,0,0,1.47-1.46v-9.29A1.47,1.47,0,0,0,366.65,478Zm.7,10.75a.71.71,0,0,1-.7.72H351.58a.71.71,0,0,1-.71-.71v-5.4h16.48Zm0-6.15H350.87v-1.78h16.48Zm0-2.53H350.87v-.6a.71.71,0,0,1,.71-.71h15.07a.71.71,0,0,1,.71.71Z" transform="translate(-350.12 -478)"/><path class="cls-1" d="M363.58,488l.14-.13a1.46,1.46,0,1,0,1.09-2.44h0a3.44,3.44,0,0,1-3.16.37,1.46,1.46,0,0,0,1.94,2.19Zm1.22-1.81a.71.71,0,1,1-.71.71A.71.71,0,0,1,364.8,486.15Zm-2.17,0a.71.71,0,1,1-.71.71A.71.71,0,0,1,362.63,486.15Z" transform="translate(-350.12 -478)"/></svg>