<svg id="Слой_1" data-name="Слой 1" xmlns="http://www.w3.org/2000/svg" viewBox="0 0 5.95 5.95"><defs><style>.cls-1{fill:#fff;}</style></defs><path class="cls-1" d="M670.4,554.16l.09.1,2.25,2.25.1.11a.32.32,0,0,1,0,.43.32.32,0,0,1-.42,0l-.11-.1L670,554.73l-.11-.1-.11.1L667.6,557a.69.69,0,0,1-.13.11.32.32,0,0,1-.42,0,.33.33,0,0,1,0-.43l.1-.1,2.23-2.24a.52.52,0,0,0,.1-.11l-.1-.1-2.25-2.26a.52.52,0,0,1-.14-.22.3.3,0,0,1,.13-.33.3.3,0,0,1,.35,0,.69.69,0,0,1,.13.11l2.24,2.25.11.1.11-.1,2.25-2.26a.62.62,0,0,1,.23-.14.28.28,0,0,1,.32.13.33.33,0,0,1,0,.37l-.11.12-2.24,2.24Z" transform="translate(-666.96 -551.19)"/></svg>