<svg id="Слой_1" data-name="Слой 1" xmlns="http://www.w3.org/2000/svg" viewBox="0 0 14 11.97"><defs><style>.cls-1{fill:#383837;}</style></defs><path class="cls-1" d="M136.38,415.56c0-.8,0-1.66,0-2.6a.35.35,0,0,0-.34-.35h-1.6a.36.36,0,0,0-.34.33.36.36,0,0,0,.27.4.59.59,0,0,0,.2,0h1v1.78H123.16v-1.77h2l-.19.41a.39.39,0,0,0,.14.56.35.35,0,0,0,.28,0,.47.47,0,0,0,.26-.24c.19-.4.39-.79.59-1.18l.31-.63c.36-.71.72-1.44,1.07-2.16a.66.66,0,0,0,.06-.34.35.35,0,0,0-.32-.27.38.38,0,0,0-.4.23l-1.3,2.62a.33.33,0,0,1-.33.2H122.8a.38.38,0,0,0-.41.41v2.5a.37.37,0,0,0,.4.4h.65l.06.47c0,.25,0,.49.08.74s.07.6.1.9c.08.7.16,1.43.23,2.15a1.35,1.35,0,0,0,1.45,1.34h8.1a1.28,1.28,0,0,0,1.37-1.18l.11-.63c.13-.83.27-1.69.41-2.53a.46.46,0,0,0-.07-.35.32.32,0,0,0-.24-.14.38.38,0,0,0-.44.36l-.09.55-.12.69-.09.52c-.07.42-.14.86-.2,1.3s-.27.65-.71.65h-8a.61.61,0,0,1-.68-.64v0a.19.19,0,0,1,0-.08l-.14-1.26c-.08-.67-.15-1.35-.23-2,0-.15,0-.3,0-.45a1.64,1.64,0,0,0,0-.22v-.14H136A.37.37,0,0,0,136.38,415.56Z" transform="translate(-122.39 -409.54)"/><path class="cls-1" d="M129.44,412.6h-2.07a.39.39,0,0,0-.35.19.38.38,0,0,0,0,.37.4.4,0,0,0,.39.21h5.07a.35.35,0,0,1,.36.23,3.74,3.74,0,0,0,.22.45l0,.1a.38.38,0,0,0,.53.2.39.39,0,0,0,.15-.55l-2-4a.38.38,0,0,0-.54-.22.38.38,0,0,0-.14.56c.14.3.3.61.45.9l.77,1.55h-2.89Z" transform="translate(-122.39 -409.54)"/></svg>