<svg id="Слой_1" data-name="Слой 1" xmlns="http://www.w3.org/2000/svg" viewBox="0 0 26.95 26.91"><defs><style>.cls-1{fill:#fff;}</style></defs><path class="cls-1" d="M395.62,400.22a13.47,13.47,0,0,0-26.15-1c-.21.77-.35,1.56-.52,2.34v2.73c.14.68.26,1.37.43,2a13.48,13.48,0,0,0,11.37,10,1,1,0,0,1,.29.1h2.74c.33-.07.67-.16,1-.21A13.51,13.51,0,0,0,395.62,400.22ZM382.41,415A12.1,12.1,0,1,1,394.5,402.9,12.11,12.11,0,0,1,382.41,415Z" transform="translate(-368.95 -389.43)"/><path class="cls-1" d="M388.8,397.28a.63.63,0,0,0-1,.12l-.2.24-3.8,4.89L380.32,407c-1.11-1-2.15-1.85-3.21-2.74a1.15,1.15,0,0,0-.68-.33.85.85,0,0,0-.6.4c-.17.32,0,.62.27.87,1.23,1,2.44,2.09,3.67,3.14.56.48.89.45,1.35-.13q2.72-3.51,5.44-7c.78-1,1.56-2,2.32-3A.65.65,0,0,0,388.8,397.28Z" transform="translate(-368.95 -389.43)"/></svg>