<svg id="Слой_1" data-name="Слой 1" xmlns="http://www.w3.org/2000/svg" viewBox="0 0 23.06 19.76"><defs><style>.cls-1{fill:#fff;}</style></defs><path class="cls-1" d="M309.6,416.66a.74.74,0,0,0-.71-.73h-2.61a.77.77,0,0,0-.15,1.51,1.38,1.38,0,0,0,.36,0H308v2.57H288.11v-2.56H291l-.21.44a.79.79,0,0,0,.3,1.11.74.74,0,0,0,.58.06.93.93,0,0,0,.51-.47c.32-.64.64-1.28.95-1.92.17-.32.33-.64.49-1l0-.07c.57-1.14,1.17-2.33,1.74-3.5a1.14,1.14,0,0,0,.1-.63.73.73,0,0,0-.65-.59.8.8,0,0,0-.8.47c-.66,1.32-1.41,2.8-2.12,4.25a.39.39,0,0,1-.4.25h-4.16a.76.76,0,0,0-.82.82c0,1.48,0,2.81,0,4.05a.76.76,0,0,0,.81.81h.92l.07.62c0,.41.09.81.13,1.21s.11,1,.17,1.46h.15l-.15,0c.13,1.14.26,2.32.37,3.48a2.6,2.6,0,0,0,.76,1.72,2.5,2.5,0,0,0,1.75.6h13.16a2.24,2.24,0,0,0,2.39-2l.17-1c.22-1.35.45-2.74.67-4.12a.87.87,0,0,0-.13-.68.75.75,0,0,0-.51-.3.8.8,0,0,0-.89.73l-.15.89-.18,1.12-.15.84c-.11.69-.24,1.4-.33,2.11s-.37.92-1,.92H291.52a.85.85,0,0,1-.94-.89v0a.71.71,0,0,0,0-.14l-.24-2.18-.36-3.16c0-.24,0-.47-.07-.73h0c0-.11,0-.22,0-.34v-.06h18.92a.76.76,0,0,0,.83-.71C309.61,419.59,309.61,418.2,309.6,416.66Z" transform="translate(-286.54 -410.96)"/><path class="cls-1" d="M294.09,416.31a.74.74,0,0,0,0,.75.79.79,0,0,0,.76.42h8.25a.4.4,0,0,1,.43.28c.11.25.24.5.37.75l.08.15a.81.81,0,0,0,.71.49.7.7,0,0,0,.36-.1.77.77,0,0,0,.31-1.1c-1-2-2.06-4.13-3.23-6.46A.79.79,0,0,0,301,411a.78.78,0,0,0-.31,1.12l.73,1.47,1.15,2.3H294.8A.81.81,0,0,0,294.09,416.31Z" transform="translate(-286.54 -410.96)"/></svg>