<svg id="Слой_1" data-name="Слой 1" xmlns="http://www.w3.org/2000/svg" viewBox="0 0 50.28 46.89"><defs><style>.cls-1{fill:#e52326;}</style></defs><path class="cls-1" d="M337.87,497.1c-2.26-1-3.52-2.22-3.73-3.71-.3-2.09,1.64-3.72,1.72-3.79l.21-.17h47.57v1.5h-47a3,3,0,0,0-1,2.25c.13.92,1.11,1.8,2.83,2.55Z" transform="translate(-334.11 -460.67)"/><path class="cls-1" d="M384.39,501.16h-4.55v-1.5h3.05V479a1.37,1.37,0,0,0-.33-1,1.22,1.22,0,0,0-.81-.31h-24.3v-1.5h24.28a2.76,2.76,0,0,1,1.86.72,2.79,2.79,0,0,1,.8,2.11Z" transform="translate(-334.11 -460.67)"/><polygon class="cls-1" points="5.63 40.45 3.31 39.6 3.31 5.82 24.09 5.82 24.09 29.85 22.59 29.85 22.59 7.32 4.8 7.32 4.8 38.55 6.14 39.04 5.63 40.45"/><path class="cls-1" d="M357.2,468H337.7a3.59,3.59,0,0,1-3.59-3.59v-.15a3.58,3.58,0,0,1,3.59-3.58h19.5a3.58,3.58,0,0,1,3.58,3.58v.15A3.59,3.59,0,0,1,357.2,468Zm-19.5-5.82a2.09,2.09,0,0,0-2.09,2.08v.15a2.1,2.1,0,0,0,2.09,2.09h19.5a2.09,2.09,0,0,0,2.08-2.09v-.15a2.08,2.08,0,0,0-2.08-2.08Z" transform="translate(-334.11 -460.67)"/><path class="cls-1" d="M367.36,477.11l-1.87-9.44a3.68,3.68,0,0,1,.7-2.64,2,2,0,0,1,1.57-.66h7.16c1.08.19,2.9,1,2.9,2.86s-1.81,8.89-2,9.7l-1.45-.37a82.3,82.3,0,0,0,2-9.33c0-.94-1.32-1.31-1.61-1.37h-6.95a.55.55,0,0,0-.46.17,2.23,2.23,0,0,0-.33,1.42l1.86,9.36Z" transform="translate(-334.11 -460.67)"/><rect class="cls-1" x="32.82" y="7.9" width="2.29" height="1.5"/><rect class="cls-1" x="36.73" y="7.9" width="1.83" height="1.5"/><rect class="cls-1" x="40.3" y="7.9" width="1.95" height="1.5"/><path class="cls-1" d="M350.21,482.78h-5a3.58,3.58,0,0,1-3.59-3.58v-5.33a3.59,3.59,0,0,1,3.59-3.58h5a3.59,3.59,0,0,1,3.59,3.58v5.33A3.58,3.58,0,0,1,350.21,482.78Zm-5-11a2.09,2.09,0,0,0-2.09,2.08v5.33a2.09,2.09,0,0,0,2.09,2.08h5a2.09,2.09,0,0,0,2.09-2.08v-5.33a2.09,2.09,0,0,0-2.09-2.08Z" transform="translate(-334.11 -460.67)"/><path class="cls-1" d="M347.56,507.56a8.24,8.24,0,1,1,8.23-8.23A8.24,8.24,0,0,1,347.56,507.56Zm0-15a6.74,6.74,0,1,0,6.73,6.74A6.74,6.74,0,0,0,347.56,492.59Z" transform="translate(-334.11 -460.67)"/><path class="cls-1" d="M347.56,503.46a4.14,4.14,0,1,1,4.13-4.13A4.14,4.14,0,0,1,347.56,503.46Zm0-6.77a2.64,2.64,0,1,0,2.63,2.64A2.64,2.64,0,0,0,347.56,496.69Z" transform="translate(-334.11 -460.67)"/><path class="cls-1" d="M362.23,506.64a6.36,6.36,0,1,1,6.36-6.36A6.36,6.36,0,0,1,362.23,506.64Zm0-11.22a4.86,4.86,0,1,0,4.86,4.86A4.87,4.87,0,0,0,362.23,495.42Z" transform="translate(-334.11 -460.67)"/><path class="cls-1" d="M362.23,502.16a1.88,1.88,0,1,1,1.88-1.88A1.88,1.88,0,0,1,362.23,502.16Zm0-2.26a.38.38,0,0,0,0,.76.38.38,0,0,0,0-.76Z" transform="translate(-334.11 -460.67)"/><path class="cls-1" d="M374.23,502.16a1.88,1.88,0,1,1,1.88-1.88A1.88,1.88,0,0,1,374.23,502.16Zm0-2.26a.38.38,0,0,0,0,.76.38.38,0,1,0,0-.76Z" transform="translate(-334.11 -460.67)"/><path class="cls-1" d="M374.23,506.64a6.36,6.36,0,1,1,6.36-6.36A6.36,6.36,0,0,1,374.23,506.64Zm0-11.22a4.86,4.86,0,1,0,4.86,4.86A4.87,4.87,0,0,0,374.23,495.42Z" transform="translate(-334.11 -460.67)"/></svg>