<svg id="Слой_1" data-name="Слой 1" xmlns="http://www.w3.org/2000/svg" viewBox="0 0 47.05 42.88"><defs><style>.cls-1{fill:#e7216e;}</style></defs><path class="cls-1" d="M356.89,505.53a19.22,19.22,0,0,1-16.61-8.66c-6.45-9.65-.29-20.46,0-20.92l.68-1.17.63,1.2A11.47,11.47,0,0,0,352,481.79c2.43-.11,4.21-.79,5.27-2a4.83,4.83,0,0,0,1.12-3.16,7.93,7.93,0,0,1-1.13-7.51c1.57-4.47,6-6.91,11.42-6.38s8,7.42,8.06,7.71l0,.16c0,.17.46,4.16-1.93,6.55a18.32,18.32,0,0,1-3.05,2.44c1.16,1.07,4.26,4.58,3.93,11.26-.42,8.3-9.67,13.19-13.83,14.15A22.94,22.94,0,0,1,356.89,505.53ZM341,477.85c-1.33,2.94-4.22,11,.55,18.18,6.68,10,17.87,8,20.05,7.5,3.81-.88,12.29-5.31,12.66-12.77.36-7.17-3.58-10.21-3.74-10.34l.11-.16a9.72,9.72,0,0,1-2.16.85,10.53,10.53,0,0,1-3.08.18l.18-1.49a8.61,8.61,0,0,0,2.56-.16,13.43,13.43,0,0,0,5.68-3.56c1.73-1.72,1.56-4.71,1.52-5.24-.28-.72-2.49-6.2-6.77-6.62-4.76-.47-8.53,1.59-9.86,5.37a6.41,6.41,0,0,0,1,6.24l.16.18,0,.23a6.29,6.29,0,0,1-1.44,4.49c-1.35,1.57-3.49,2.43-6.36,2.56A12.86,12.86,0,0,1,341,477.85Z" transform="translate(-337.35 -462.65)"/><path class="cls-1" d="M356.79,496.37c-3,0-9.57-2.32-11.45-5.77-.94-1.74-1.23-3-.9-3.94a1.54,1.54,0,0,1,.73-.86,4.3,4.3,0,0,1,3.12-.43l.11,0a12.65,12.65,0,0,0,7.51.33c4.29-1,6-.29,7,.58a5.77,5.77,0,0,1,1.85,5.95c-.79,2.81-4.54,4-7.78,4.1Zm-10.92-9.25c0,.09-.3.75.79,2.76,1.58,2.91,7.78,5.11,10.29,5,2.08-.09,5.79-.83,6.4-3a4.33,4.33,0,0,0-1.36-4.39c-.47-.38-1.58-1.29-5.72-.28a14.18,14.18,0,0,1-8.35-.37l-.1,0A2.92,2.92,0,0,0,345.87,487.12Z" transform="translate(-337.35 -462.65)"/><path class="cls-1" d="M376.27,480.46a11.13,11.13,0,0,1-4.48-.85l.64-1.35a10.84,10.84,0,0,0,6,.49c2.2-.42,3.36-2.63,3.88-4a11.22,11.22,0,0,1-3,.13,5.86,5.86,0,0,1-3.46-1.81l1.13-1-.57.49.56-.5a4.46,4.46,0,0,0,2.52,1.31,11.21,11.21,0,0,0,3.7-.37l1.19-.33-.25,1.21c0,.22-1.2,5.54-5.42,6.34A13,13,0,0,1,376.27,480.46Z" transform="translate(-337.35 -462.65)"/><path class="cls-1" d="M369.34,473.75a1.75,1.75,0,1,1,1.74-1.74A1.74,1.74,0,0,1,369.34,473.75Zm0-2a.25.25,0,0,0-.25.25c0,.27.49.27.49,0A.25.25,0,0,0,369.34,471.76Z" transform="translate(-337.35 -462.65)"/></svg>