<svg id="Слой_1" data-name="Слой 1" xmlns="http://www.w3.org/2000/svg" viewBox="0 0 57.31 40.99"><defs><style>.cls-1{fill:#4b5ea8;}</style></defs><path class="cls-1" d="M343.39,476.86l25.69-10.47-.56-1.39-9.47,3.86-1.54-3.47a.76.76,0,0,0-.41-.4.78.78,0,0,0-.58,0l-2.22,1-1.71-3.35-1.34.68,1.68,3.28-2.19,1a.73.73,0,0,0-.39.42.78.78,0,0,0,0,.58l1.51,3.19-9.05,3.69Zm8.67-8.22,4.39-2,1.21,2.75-4.39,1.78Z" transform="translate(-332.28 -462.65)"/><path class="cls-1" d="M381.77,465a21.76,21.76,0,0,0-9-.94l.25,1.48a19.94,19.94,0,0,1,8.27.88,11.26,11.26,0,0,1,6.81,10.46,14.46,14.46,0,0,1-3.49,10.39,10.51,10.51,0,0,1-7.5,3.3c-7.18.24-9.74-3.2-9.84-3.34a.75.75,0,0,0-.88-.27l-7,2.68a.72.72,0,0,0-.42.42.74.74,0,0,0,0,.6,5.26,5.26,0,0,1-.06,2.83c-.48,2.23-3.54,6.65-6.26,7.69-.5.18-12.08,4.42-17.53-6.29a11.51,11.51,0,0,1,.51-11.71,18.11,18.11,0,0,1,4.18-4.81l-.9-1.2c-.11.08-10.42,8-5.12,18.4a13.82,13.82,0,0,0,13,8.08,19.8,19.8,0,0,0,6.38-1.07c3.3-1.25,6.64-6.19,7.2-8.78a8.14,8.14,0,0,0,.16-3l5.86-2.25c1,1.1,4.21,3.73,10.73,3.52a12,12,0,0,0,8.55-3.78,16,16,0,0,0,3.89-11.46A12.82,12.82,0,0,0,381.77,465Z" transform="translate(-332.28 -462.65)"/><polygon class="cls-1" points="20.54 24.39 14.54 27.01 12.06 21.01 10.67 21.58 13.16 27.61 7.41 30.12 8.01 31.5 13.74 29 16.2 34.96 17.59 34.39 15.11 28.4 21.14 25.76 20.54 24.39"/><path class="cls-1" d="M366.22,480.76a3.39,3.39,0,1,0,3.39-3.39A3.39,3.39,0,0,0,366.22,480.76Zm3.39-1.89a1.89,1.89,0,1,1-1.89,1.89A1.89,1.89,0,0,1,369.61,478.87Z" transform="translate(-332.28 -462.65)"/><path class="cls-1" d="M373.64,476a3.39,3.39,0,1,0-3.39-3.39A3.39,3.39,0,0,0,373.64,476Zm0-5.28a1.89,1.89,0,1,1-1.89,1.89A1.89,1.89,0,0,1,373.64,470.69Z" transform="translate(-332.28 -462.65)"/><path class="cls-1" d="M385.65,475.81a3.39,3.39,0,1,0-3.39,3.39A3.39,3.39,0,0,0,385.65,475.81Zm-5.28,0a1.89,1.89,0,1,1,1.89,1.89A1.89,1.89,0,0,1,380.37,475.81Z" transform="translate(-332.28 -462.65)"/><path class="cls-1" d="M374.92,483.4a3.39,3.39,0,1,0,3.39-3.39A3.39,3.39,0,0,0,374.92,483.4Zm5.28,0a1.89,1.89,0,1,1-1.89-1.89A1.89,1.89,0,0,1,380.2,483.4Z" transform="translate(-332.28 -462.65)"/></svg>