<svg id="Слой_1" data-name="Слой 1" xmlns="http://www.w3.org/2000/svg" viewBox="0 0 45.15 45.82"><defs><style>.cls-1{fill:#3988c8;}</style></defs><path class="cls-1" d="M379.69,501.65V483a2.78,2.78,0,0,0-.79-5.44h-9.8a3.16,3.16,0,0,0-2.68-4.83,3.13,3.13,0,0,0-2.28,1l-2.76-1.39,19.38-9.14-.64-1.36-20.45,9.65L339.13,461.2l-.68,1.35,19.5,9.77-2.52,1.19a3.12,3.12,0,0,0-2-.75,3.16,3.16,0,0,0-2.68,4.83H339.33a2.77,2.77,0,0,0-.75,5.45v18.59a2.74,2.74,0,0,0,.71,5.39h39.65a2.74,2.74,0,0,0,.75-5.37Zm-39.61-18.49h7.5L340.08,499Zm8.7,1,8.59,17.4H340.52Zm1.19-1h17.47l-8.85,17.44Zm18.86.58,8.9,17.79H359.8Zm1.38-.58h8v15.95Zm-3.79-8.9a1.67,1.67,0,1,1-1.66,1.66A1.66,1.66,0,0,1,366.42,474.26Zm-3,.79a3,3,0,0,0,.34,2.54H356.1a3.16,3.16,0,0,0,.25-2.86l3.3-1.56Zm-11.64.87a1.65,1.65,0,0,1,3.13-.75l.08.16a1.63,1.63,0,0,1,.11.59,1.66,1.66,0,1,1-3.32,0ZM338,480.37a1.28,1.28,0,0,1,1.29-1.28H378.9a1.29,1.29,0,1,1,0,2.57h-9.45a.76.76,0,0,0-.62-.33.62.62,0,0,0-.61.33H339.33A1.29,1.29,0,0,1,338,480.37Zm40.9,25.15H339.29a1.25,1.25,0,1,1,0-2.49h39.65a1.25,1.25,0,1,1,0,2.49Z" transform="translate(-336.54 -461.2)"/></svg>