<svg id="Слой_1" data-name="Слой 1" xmlns="http://www.w3.org/2000/svg" viewBox="0 0 44.59 53.23"><defs><style>.cls-1{fill:#674c9a;}</style></defs><path class="cls-1" d="M381.17,480.92a.76.76,0,0,0,.18-.83.75.75,0,0,0-.69-.47h-3.94c.11-1.18,0-5-5.67-7.05a21.57,21.57,0,0,0-3.64-1.09c-1.51-2.31-3.5-3.66-8.63-3.78-3.65-.1-5.45,1.7-6.27,3l-2.71-3.94,1.59-1.15h0a3.59,3.59,0,0,0,.8-5l-1-1.38a3.6,3.6,0,0,0-5-.81l-6.09,4.41a3.57,3.57,0,0,0-.81,5l1,1.38a3.57,3.57,0,0,0,5,.81l1.52-1.1,2.79,3.93a11.39,11.39,0,0,0-2.58-.31H347c-4.73,0-6.94,4.32-7.59,7.09h-1.8a.75.75,0,0,0-.59,1.2l3.56,4.7,5.61,24.86a.77.77,0,0,0,.74.59h24.35a.76.76,0,0,0,.75-.65l.75-5.14a8.69,8.69,0,0,0,1,.16l.68,0a4.34,4.34,0,0,0,3.67-1.72c2.57-3.43.53-10.6,0-11.86A9.26,9.26,0,0,0,376,488.6l.67-3.42Zm-36.76-12.13a2.07,2.07,0,0,1-2.91-.47l-1-1.38A2.07,2.07,0,0,1,341,464l6.09-4.4a2,2,0,0,1,1.22-.39,2.09,2.09,0,0,1,1.69.86l1,1.38a2.09,2.09,0,0,1-.47,2.91h0ZM347,474H347c5.16,0,6,3.32,6,3.45l1.47-.32a5.77,5.77,0,0,0-2.2-3.09L348,468l.55-.4,5.85,8.51,1.24-.85-2.21-3.22c.35-.79,1.6-2.87,5.09-2.87h.2c4.57.1,6.13,1.27,7.18,2.77a.84.84,0,0,0,0,.81L364.3,474l.9,1.21,2.35-1.74.38,2,1.47-.27-.32-1.77c.41.13.89.3,1.46.5,5.23,1.89,4.74,5.29,4.68,5.64h-34.3C341.41,477.85,342.93,474,347,474Zm29.74,18.31c.79,2,2,8,.17,10.41a3.06,3.06,0,0,1-3,1.09c-6.61-.62-14.4-11.49-14.47-11.6l-1.23.87c.3.42,6.6,9.21,13.13,11.64l-.69,4.72H347.48L342,485a.7.7,0,0,0-.13-.29l-2.75-3.62h39.7l-3.12,2.93H364.36v1.5H375L372,501.18l1.48.28,2.14-11A8.26,8.26,0,0,1,376.69,492.34Z" transform="translate(-336.81 -457.74)"/><rect class="cls-1" x="345.1" y="485.07" width="1.5" height="4.89" transform="translate(-438.28 -366.7) rotate(-13.1)"/><rect class="cls-1" x="348.01" y="491.97" width="1.5" height="15.15" transform="translate(-442.56 -363.91) rotate(-13.33)"/><rect class="cls-1" x="20.95" y="26.32" width="3.77" height="1.5"/><rect class="cls-1" x="356.55" y="489.43" width="1.5" height="1.72" transform="translate(-546.87 -182.3) rotate(-33.18)"/></svg>