<svg id="Слой_1" data-name="Слой 1" xmlns="http://www.w3.org/2000/svg" viewBox="0 0 58.44 44.91"><defs><style>.cls-1{fill:#a44c97;}</style></defs><path class="cls-1" d="M388.34,488.56v-8.87a3.59,3.59,0,0,0-2.91-3.52V476a3.3,3.3,0,0,0-6.6,0v.08h-1.4V476a3.3,3.3,0,0,0-6.6,0v.08h-1.4V476a3.3,3.3,0,0,0-6.6,0v.28a3.57,3.57,0,0,0-2.47,3.39v8.87a3.61,3.61,0,0,0,.7,2.12h-1.72v-.08a3.3,3.3,0,1,0-6.6,0v.08h-1.4v-.08a3.3,3.3,0,1,0-6.6,0v.27a3.59,3.59,0,0,0-2.47,3.39v8.88a3.59,3.59,0,0,0,3.59,3.59h20.8a3.59,3.59,0,0,0,3.59-3.59v-8.88a3.53,3.53,0,0,0-.71-2.11h2a3.52,3.52,0,0,0-.7,2.11v8.88a3.59,3.59,0,0,0,3.58,3.59h10.34a3.59,3.59,0,0,0,3.59-3.59v-8.88a3.6,3.6,0,0,0-1.43-2.85A3.57,3.57,0,0,0,388.34,488.56Zm-8-12.54a1.8,1.8,0,0,1,3.6,0v.08h-3.6Zm-8,0a1.8,1.8,0,0,1,3.6,0v.08h-3.6Zm-8,0a1.8,1.8,0,0,1,3.6,0v.08h-3.6ZM354.24,490.6a1.8,1.8,0,1,1,3.6,0v.08h-3.6Zm-8,0a1.8,1.8,0,1,1,3.6,0v.08h-3.6Zm22.51,12.54a2.1,2.1,0,0,1-2.09,2.09h-20.8a2.1,2.1,0,0,1-2.09-2.09v-8.88a2.08,2.08,0,0,1,1.44-2h6.13v-.11h1.4v.11h6.6v-.11h7.32a2.09,2.09,0,0,1,2.09,2.08Zm18.09,0a2.1,2.1,0,0,1-2.09,2.09H374.41a2.09,2.09,0,0,1-2.08-2.09v-8.88a2.08,2.08,0,0,1,2.08-2.08h10.34a2.09,2.09,0,0,1,2.09,2.08Zm0-14.58a2.1,2.1,0,0,1-2.09,2.09H364a2.1,2.1,0,0,1-2.09-2.09v-8.87a2.08,2.08,0,0,1,1.45-2h6.12v-.11h1.4v.11h6.6v-.11h1.4v.11h6.56a2.08,2.08,0,0,1,1.45,2Z" transform="translate(-329.89 -461.82)"/><path class="cls-1" d="M357.77,474.67a3.56,3.56,0,0,0,1.05-2.54,3.52,3.52,0,0,0-1.05-2.53l-6.28-6.28a3.68,3.68,0,0,0-4.54-.43l-.11-.11a3.3,3.3,0,0,0-5.63,2.34,3.27,3.27,0,0,0,1,2.33l.06.06-1,1-.06-.06a3.38,3.38,0,0,0-4.66,0,3.3,3.3,0,0,0,0,4.67l.06.06-1,1-.05-.06a3.38,3.38,0,0,0-4.67,0,3.28,3.28,0,0,0,0,4.66l.2.2a3.57,3.57,0,0,0,.65,4.14l6.28,6.28a3.59,3.59,0,0,0,5.07,0Zm-14.53-10.83a1.81,1.81,0,0,1,2.54,0l.06.06-2.55,2.55-.05-.06a1.79,1.79,0,0,1-.53-1.27A1.81,1.81,0,0,1,343.24,463.84Zm-5.66,5.66a1.79,1.79,0,0,1,2.54,0l.06.06-2.54,2.54-.06-.05A1.81,1.81,0,0,1,337.58,469.5Zm-5.66,8.2a1.8,1.8,0,0,1,1.27-3.07,1.81,1.81,0,0,1,1.28.53l0,.06L332,477.76Zm7.13,10.62L332.77,482a2.08,2.08,0,0,1-.37-2.42l4.32-4.33-.07-.07,1-1,.07.07,4.67-4.66-.08-.08,1-1,.08.08L348,464a2,2,0,0,1,.94-.23,2.08,2.08,0,0,1,1.47.61l6.28,6.28a2.06,2.06,0,0,1,.61,1.47,2.11,2.11,0,0,1-.61,1.48L342,488.32A2.13,2.13,0,0,1,339.05,488.32Z" transform="translate(-329.89 -461.82)"/></svg>