<svg id="Слой_1" data-name="Слой 1" xmlns="http://www.w3.org/2000/svg" viewBox="0 0 46.87 51.88"><defs><style>.cls-1{fill:#b74593;}</style></defs><path class="cls-1" d="M382,490.84h0l-4.56-8.21H371.7l1.34-.77a3.54,3.54,0,0,0,1.53-1.83l2-3.55a3.6,3.6,0,0,0,.79-4.52L370.46,460a3.6,3.6,0,0,0-4.9-1.32l-12.73,7.35a3.49,3.49,0,0,0-.81.67l-.14-.08-3,5.25a3.49,3.49,0,0,0-.69,1.34,3.55,3.55,0,0,0,.36,2.72l3.85,6.67H341.05l-5.25,8.29.3.19a3.46,3.46,0,0,0-.42,1.63v13.79a3.58,3.58,0,0,0,3.59,3.58H354a3.58,3.58,0,0,0,3-1.62l3.72-3.66v1.7a3.58,3.58,0,0,0,3.59,3.58H379a3.58,3.58,0,0,0,3.58-3.58V492.74A3.53,3.53,0,0,0,382,490.84Zm-12.83-30.06,6.89,11.93a2.11,2.11,0,0,1,.27,1.14l-.91,1.62-.12.09-1.31.76L367.46,465a3.46,3.46,0,0,0-1.28-1.27l2.07-3.82A2.11,2.11,0,0,1,369.16,460.78Zm-15.58,6.58L366.31,460l.26-.1-1.83,3.36a3.55,3.55,0,0,0-2.18.44L351.69,470l1.23-2.15h.1A2.16,2.16,0,0,1,353.58,467.36Zm-4,6.27,0-.09.44-.76a2,2,0,0,1,.5-.42L363.31,465a2.13,2.13,0,0,1,1-.28,2.16,2.16,0,0,1,1.81,1l6.89,11.93a2.06,2.06,0,0,1,.18,1.64l-.43.78a2.12,2.12,0,0,1-.51.43l-12.73,7.35a2.08,2.08,0,0,1-2.85-.76l-6.89-11.94A2,2,0,0,1,349.61,473.63Zm-7.74,10.5h11.37l2.17,3.77a3.65,3.65,0,0,0,.63.78l-.45.89a3.57,3.57,0,0,0-1.62-.41h-14.7a4.2,4.2,0,0,0-.62.06ZM354,508.61h-14.7a2.09,2.09,0,0,1-2.09-2.08V492.74a2.09,2.09,0,0,1,2.09-2.08H354a2.08,2.08,0,0,1,2.08,2.08v13.79A2.08,2.08,0,0,1,354,508.61Zm3.58-2.8V492.74a3.51,3.51,0,0,0-.77-2.19l.54-1.08.27.1a3.65,3.65,0,0,0,.93.12,3.59,3.59,0,0,0,1.79-.48l8.79-5.08h7.46l2.81,5.07c-.13,0-.26,0-.4,0h-14.7a3.59,3.59,0,0,0-3.59,3.58v10Zm23.5.72a2.08,2.08,0,0,1-2.08,2.08h-14.7a2.09,2.09,0,0,1-2.09-2.08V492.74a2.09,2.09,0,0,1,2.09-2.08H379a2.08,2.08,0,0,1,2.08,2.08Z" transform="translate(-335.68 -458.23)"/><path class="cls-1" d="M348.14,494.47a1.39,1.39,0,0,0-.23-.41.49.49,0,0,0-.39-.14h-1.8a.47.47,0,0,0-.39.14,1.05,1.05,0,0,0-.23.41l-4,10.33a.48.48,0,0,0,.12.43.44.44,0,0,0,.31.13h1.17a.63.63,0,0,0,.46-.14.71.71,0,0,0,.18-.27l.7-1.82h5.17l.7,1.82a.71.71,0,0,0,.18.27.63.63,0,0,0,.46.14h1.18a.44.44,0,0,0,.44-.44.37.37,0,0,0,0-.12Zm-3.32,6.62,1.8-4.66,1.79,4.66Z" transform="translate(-335.68 -458.23)"/><path class="cls-1" d="M360.38,483.82a.5.5,0,0,0,.34,0l4.57-2.47a3.51,3.51,0,0,0,1.2-1,3.23,3.23,0,0,0,.6-1.22,3.49,3.49,0,0,0-.32-2.49,2.81,2.81,0,0,0-1.13-1.2,3.59,3.59,0,0,0-1.28-.41,1.62,1.62,0,0,0,.15-.36,4.06,4.06,0,0,0,.12-.57,3.08,3.08,0,0,0,0-.73,2.88,2.88,0,0,0-.3-.83,3.39,3.39,0,0,0-.67-.84,3.07,3.07,0,0,0-1-.63,3.2,3.2,0,0,0-1.38-.17,4.21,4.21,0,0,0-1.69.55l-4.24,2.29a.37.37,0,0,0-.21.26.38.38,0,0,0,0,.33l5,9.3A.49.49,0,0,0,360.38,483.82Zm-2.57-9.14,2.55-1.38a2,2,0,0,1,1.24-.31,1.33,1.33,0,0,1,.9,1.66,2,2,0,0,1-.95.87L359,476.89Zm4.83,2.58A1.88,1.88,0,0,1,364,477a1.34,1.34,0,0,1,.86.69,1.3,1.3,0,0,1,.11,1.08,1.91,1.91,0,0,1-1,1l-2.66,1.43L360,478.69Z" transform="translate(-335.68 -458.23)"/><path class="cls-1" d="M368.86,497.3a2.16,2.16,0,0,1,.49-.78,2.34,2.34,0,0,1,.79-.53,2.93,2.93,0,0,1,1.11-.19,3.75,3.75,0,0,1,1.12.15,2.85,2.85,0,0,1,.78.4,2,2,0,0,1,.49.56,1.72,1.72,0,0,1,.23.63.43.43,0,0,0,.18.32.53.53,0,0,0,.31.11h1.32a.47.47,0,0,0,.32-.12.37.37,0,0,0,.12-.32,4.12,4.12,0,0,0-.33-1.33,3.43,3.43,0,0,0-.87-1.22,4.7,4.7,0,0,0-1.49-.88,6.11,6.11,0,0,0-2.18-.35,5.57,5.57,0,0,0-2,.34,4.09,4.09,0,0,0-2.41,2.36,5.9,5.9,0,0,0-.4,1.81q0,.63,0,1.38c0,.5,0,1,0,1.37a5.84,5.84,0,0,0,.4,1.81,4,4,0,0,0,.94,1.43,4.27,4.27,0,0,0,1.47.94,5.57,5.57,0,0,0,2,.33,6.12,6.12,0,0,0,2.18-.34,4.72,4.72,0,0,0,1.49-.89,3.45,3.45,0,0,0,.87-1.2,4.18,4.18,0,0,0,.33-1.34.36.36,0,0,0-.12-.32.44.44,0,0,0-.32-.13h-1.32a.48.48,0,0,0-.3.11.44.44,0,0,0-.17.32,1.82,1.82,0,0,1-.73,1.19,2.44,2.44,0,0,1-.79.4,3.44,3.44,0,0,1-1.12.16,2.93,2.93,0,0,1-1.11-.2,2.31,2.31,0,0,1-.79-.52,2.25,2.25,0,0,1-.49-.78,3.34,3.34,0,0,1-.2-1c0-.41,0-.87,0-1.37s0-1,0-1.38A3.49,3.49,0,0,1,368.86,497.3Z" transform="translate(-335.68 -458.23)"/></svg>