<svg id="Слой_1" data-name="Слой 1" xmlns="http://www.w3.org/2000/svg" viewBox="0 0 41.93 43.5"><defs><style>.cls-1{fill:#ee743e;}</style></defs><path class="cls-1" d="M360.15,506a13.19,13.19,0,0,1-3.47-.54c-2.24-.63-15.14-5.77-15.69-6-.34-.17-2.71-1.46-2.71-3.36V466.28a1.84,1.84,0,0,1,1-2.17,31.79,31.79,0,0,1,3.19-1.43,3.05,3.05,0,0,1,2.22,0c.52.26,4.31,1.87,5.72,2.47l1.29.55-4.49,2.93v7.13l2-1.23,1.61,1.72v-6.8l4.44-2.52,4.42,2.22a1.4,1.4,0,0,0,.88-.13l15.45-5.81c1.41,0,4.08.64,4.08,3.07l0,30.65a3.16,3.16,0,0,1-2,2.08c-1.32.55-16.76,6.62-17.41,6.88l-.21.05ZM343,464.08s-2,.81-3,1.34c-.25.14-.35.28-.29.44l.06.29v29.94c0,.78,1.24,1.68,1.84,2,.06,0,13.3,5.3,15.46,5.9a11.37,11.37,0,0,0,3.19.49c1.45-.57,16-6.3,17.28-6.82a1.93,1.93,0,0,0,1.09-1V466.31c0-1.35-1.93-1.54-2.45-1.57l-15.05,5.71-.26-.7.26.7a2.3,2.3,0,0,1-2.4-.13l-3.38-1.66-3,1.69v9.72l-3.37-3.6-3.28,2v-10.6l2.82-1.84c-1.57-.67-4.05-1.73-4.51-2a1.7,1.7,0,0,0-1,0Z" transform="translate(-338.21 -462.48)"/><path class="cls-1" d="M365.18,485.51a2.48,2.48,0,0,1-1.69-.76l-.2-.22V478a2.15,2.15,0,0,1,1.07-1.63c2-1,8.53-4,9.63-4.16a2.08,2.08,0,0,1,2.14,1.88l0,.14V479a3.6,3.6,0,0,1-.79,2.15l-.11.13-.16.07c-.08,0-8.32,3.66-9.13,4A1.9,1.9,0,0,1,365.18,485.51Zm-.39-1.64a.59.59,0,0,0,.54.11c.77-.36,7.71-3.42,9-4a2,2,0,0,0,.35-1.06v-4.67c0-.17-.22-.66-.5-.62a95,95,0,0,0-9.07,4,1,1,0,0,0-.29.33Z" transform="translate(-338.21 -462.48)"/></svg>