<svg id="Слой_1" data-name="Слой 1" xmlns="http://www.w3.org/2000/svg" viewBox="0 0 42.06 51.58"><defs><style>.cls-1{fill:#f0d523;}</style></defs><path class="cls-1" d="M351.53,485.21A13.45,13.45,0,1,1,365,471.76,13.46,13.46,0,0,1,351.53,485.21Zm0-25.39a11.95,11.95,0,1,0,11.94,11.94A12,12,0,0,0,351.53,459.82Z" transform="translate(-338.09 -458.32)"/><path class="cls-1" d="M346.14,480.57a3.44,3.44,0,1,1,3.44-3.44A3.45,3.45,0,0,1,346.14,480.57Zm0-5.38a1.94,1.94,0,1,0,1.94,1.94A1.94,1.94,0,0,0,346.14,475.19Z" transform="translate(-338.09 -458.32)"/><path class="cls-1" d="M352.21,475.66a3.44,3.44,0,1,1,3.44-3.44A3.44,3.44,0,0,1,352.21,475.66Zm0-5.38a1.94,1.94,0,1,0,1.94,1.94A1.94,1.94,0,0,0,352.21,470.28Z" transform="translate(-338.09 -458.32)"/><path class="cls-1" d="M358.6,471.12a3.44,3.44,0,1,1,3.44-3.44A3.44,3.44,0,0,1,358.6,471.12Zm0-5.38a1.94,1.94,0,1,0,1.94,1.94A1.94,1.94,0,0,0,358.6,465.74Z" transform="translate(-338.09 -458.32)"/><rect class="cls-1" x="336.73" y="465.37" width="21.12" height="1.5" transform="translate(-543.6 -171.9) rotate(-35.3)"/><rect class="cls-1" x="337.25" y="467.95" width="24.26" height="1.5" transform="matrix(0.82, -0.57, 0.57, 0.82, -543.92, -172.62)"/><rect class="cls-1" x="345" y="476.66" width="21.48" height="1.5" transform="translate(-557.02 -136.57) rotate(-38.15)"/><path class="cls-1" d="M372,509.9a8.18,8.18,0,1,1,8.17-8.17A8.19,8.19,0,0,1,372,509.9Zm0-14.85a6.68,6.68,0,1,0,6.67,6.68A6.69,6.69,0,0,0,372,495.05Z" transform="translate(-338.09 -458.32)"/><path class="cls-1" d="M372,506.74a5,5,0,1,1,5-5A5,5,0,0,1,372,506.74Zm0-8.53a3.52,3.52,0,1,0,3.52,3.52A3.53,3.53,0,0,0,372,498.21Z" transform="translate(-338.09 -458.32)"/><path class="cls-1" d="M366.55,497.48l-10.39-14.43,4-2.87,10.38,14.43Zm-8.29-14.09,8.63,12,1.55-1.12-8.64-12Z" transform="translate(-338.09 -458.32)"/></svg>