<svg id="Слой_1" data-name="Слой 1" xmlns="http://www.w3.org/2000/svg" viewBox="0 0 48.61 52.49"><defs><style>.cls-1{fill:#5fb989;}</style></defs><path class="cls-1" d="M383.42,482.28a14.79,14.79,0,0,0-14.77-14.77,14.59,14.59,0,0,0-4.6.75,15,15,0,1,0-15.78,19.52l-1.29,3a.75.75,0,0,0,.07.71.73.73,0,0,0,.62.34h1.66v18.54h1.5V491.82h1.86a.76.76,0,0,0,.64-.36.79.79,0,0,0,0-.73l-1.53-3a14.87,14.87,0,0,0,2.84-.67,14.8,14.8,0,0,0,12.1,9.89L365.45,500a.75.75,0,0,0,.07.71.73.73,0,0,0,.62.34h1.66v9.31h1.5v-9.31h1.86a.76.76,0,0,0,.64-.36.79.79,0,0,0,0-.73l-1.52-3A14.79,14.79,0,0,0,383.42,482.28Zm-34.61,8,1.05-2.45,0,0,.4,0,1.25,2.49Zm5.45-4.74a13.49,13.49,0,1,1,8.39-16.78,14.71,14.71,0,0,0-8.39,16.78Zm13,14,1.05-2.45-.16-.07.48,0h0l1.26,2.5Zm1.37-4a13.28,13.28,0,1,1,13.27-13.28A13.29,13.29,0,0,1,368.65,495.56Z" transform="translate(-334.81 -457.87)"/><path class="cls-1" d="M341.41,474.75c-1-3.61,1.14-7.16,1.16-7.2l-1.27-.79c-.1.16-2.54,4.13-1.34,8.39.76,2.66,2.74,4.8,5.91,6.36l.67-1.34C343.77,478.8,342.05,477,341.41,474.75Z" transform="translate(-334.81 -457.87)"/><rect class="cls-1" x="343.05" y="463.96" width="1.79" height="1.5" transform="translate(-559.48 -97.72) rotate(-43.07)"/><path class="cls-1" d="M360.88,484.17c-.92-3.63,1.53-7.06,1.56-7.1l-1.21-.88c-.12.16-2.89,4-1.81,8.33.71,2.85,2.9,5.18,6.52,6.92l.65-1.35C363.4,488.55,361.48,486.56,360.88,484.17Z" transform="translate(-334.81 -457.87)"/><path class="cls-1" d="M364.92,474.72l-.41-1.44a6.68,6.68,0,0,0-2.32,1.55l1.06,1.06A5.24,5.24,0,0,1,364.92,474.72Z" transform="translate(-334.81 -457.87)"/></svg>