<svg id="Слой_1" data-name="Слой 1" xmlns="http://www.w3.org/2000/svg" viewBox="0 0 38.08 50.52"><defs><style>.cls-1{fill:#f7a511;}</style></defs><path class="cls-1" d="M372.31,509.37H345.93a5.85,5.85,0,1,1,0-11.69h26.38a5.85,5.85,0,1,1,0,11.69Zm-26.38-10.19a4.35,4.35,0,1,0,0,8.69h26.38a4.35,4.35,0,1,0,0-8.69Z" transform="translate(-340.08 -458.85)"/><path class="cls-1" d="M367.69,490.41H350.44a4.16,4.16,0,1,1,0-8.31h17.25a4.16,4.16,0,0,1,0,8.31Zm-17.25-6.81a2.66,2.66,0,1,0,0,5.31h17.25a2.66,2.66,0,0,0,0-5.31Z" transform="translate(-340.08 -458.85)"/><path class="cls-1" d="M370.26,499.18H347.42a4.8,4.8,0,0,1,0-9.6h22.84a4.8,4.8,0,0,1,0,9.6Zm-22.84-8.1a3.3,3.3,0,0,0,0,6.6h22.84a3.3,3.3,0,0,0,0-6.6Z" transform="translate(-340.08 -458.85)"/><path class="cls-1" d="M363.86,483.6h-9.62a4.58,4.58,0,0,1,0-9.15h9.62a4.58,4.58,0,1,1,0,9.15ZM354.24,476a3.08,3.08,0,0,0,0,6.15h9.62a3.08,3.08,0,1,0,0-6.15Z" transform="translate(-340.08 -458.85)"/><path class="cls-1" d="M357.43,476c-.32,0-3.13-.52-3.55-6.68s4.91-9.92,5.13-10.09l.47-.33.45.37c.19.16,4.8,4,5,8.85a9.42,9.42,0,0,1-2.86,7.52l-1-1.15.48.57-.49-.57a7.87,7.87,0,0,0,2.34-6.29c-.17-3.34-2.94-6.31-4.05-7.37-1.21,1-4.33,4.16-4,8.39.33,4.87,2.22,5.29,2.24,5.29Z" transform="translate(-340.08 -458.85)"/><path class="cls-1" d="M347.8,496.69a3.27,3.27,0,0,1-1-4.56l1.27.79-.63-.4.64.4a1.78,1.78,0,0,0,.53,2.53Z" transform="translate(-340.08 -458.85)"/><path class="cls-1" d="M351.8,488.72a3.67,3.67,0,0,1-2.55-3.89l1.5.14a2.17,2.17,0,0,0,1.49,2.32Z" transform="translate(-340.08 -458.85)"/><path class="cls-1" d="M346.29,506.69a3.37,3.37,0,0,1-3.41-3.64c0-2.05,2.17-2.87,3.31-3l.19,1.49-.09-.75.09.75s-2,.27-2,1.52a1.88,1.88,0,0,0,1.91,2.14Z" transform="translate(-340.08 -458.85)"/></svg>