<svg id="Слой_1" data-name="Слой 1" xmlns="http://www.w3.org/2000/svg" viewBox="0 0 47.31 47.31"><defs><style>.cls-1{fill:#5ac1d0;}</style></defs><path class="cls-1" d="M359.12,460.46a23.66,23.66,0,1,0,23.65,23.65A23.68,23.68,0,0,0,359.12,460.46ZM337,484.11a22.14,22.14,0,0,1,31.29-20.17L343.49,499.8A22.07,22.07,0,0,1,337,484.11Zm7.65,16.72,25-36.22a22,22,0,0,1,4.93,3.62l-24.22,36.21A22.17,22.17,0,0,1,344.61,500.83Zm14.51,5.44a22,22,0,0,1-7.37-1.27l23.86-35.66a22.14,22.14,0,0,1-16.49,36.93Z" transform="translate(-335.46 -460.46)"/><path class="cls-1" d="M345.21,493.35l1.29-.77c-7.57-12.72.66-20.35,1-20.67l-1-1.12C346.42,470.88,337,479.54,345.21,493.35Z" transform="translate(-335.46 -460.46)"/><path class="cls-1" d="M348.46,469.38l.87,1.22a10.52,10.52,0,0,1,2.47-1.32l-.37-1.45A11.5,11.5,0,0,0,348.46,469.38Z" transform="translate(-335.46 -460.46)"/></svg>