<svg id="Слой_1" data-name="Слой 1" xmlns="http://www.w3.org/2000/svg" viewBox="0 0 15.96 6.67"><defs><style>.cls-1{fill:#e31f26;}</style></defs><path class="cls-1" d="M367.07,484.28a366605216100.2,366605216100.2,0,0,0,0-.12s0,0,0,0v0a.13.13,0,0,0,0-.06.13.13,0,0,0,0-.06l0-.05,0-.05,0,0-2.32-2.9a.43.43,0,0,0-.68.54l1.76,2.19H351.57a.44.44,0,0,0-.43.44.43.43,0,0,0,.43.43h14.19l-1.76,2.2a.43.43,0,0,0,.07.61.41.41,0,0,0,.27.1.44.44,0,0,0,.34-.17l2.32-2.9,0,0,0-.05Z" transform="translate(-351.14 -480.8)"/></svg>