<svg id="Слой_1" 
data-name="Слой 1" 
xmlns="http://www.w3.org/2000/svg"
 viewBox="0 0 16.95 16.95">
 <path fill="#ffffff" d="M150.18,486.38H137.11l-.06,0a2.25,2.25,0,0,1-1.88-2.29V472.92a11.33,11.33,0,0,1,.05-1.65,2.18,2.18,0,0,1,2.13-1.83h12.58a2.23,2.23,0,0,1,2.19,2.23v12.47a2.25,2.25,0,0,1-1.58,2.14Zm-6.54-15.81h-6.09a1.36,1.36,0,0,0-.45.06,1.13,1.13,0,0,0-.8,1.21v12.21a1.14,1.14,0,0,0,1.21,1.2h12.21A1.16,1.16,0,0,0,151,484V471.79a1.14,1.14,0,0,0-1.21-1.22Z" transform="translate(-135.17 -469.43)"/>
 <path fill="#ffffff" d="M144.4,477.89l2,2,1,1a.56.56,0,0,1,0,.82.57.57,0,0,1-.83,0l-2.79-2.8c0-.05-.09-.12-.15-.19l-.17.16-2.81,2.81a.58.58,0,0,1-.6.19.56.56,0,0,1-.24-.93c.31-.32.63-.63,1-1l1.91-1.91.16-.16-.53-.5-2.45-2.45a.56.56,0,0,1-.18-.59.55.55,0,0,1,.93-.22c.43.41.84.83,1.26,1.25l1.69,1.69.06,0,.13-.13,2.82-2.82a.59.59,0,0,1,.61-.18.54.54,0,0,1,.28.85,1.07,1.07,0,0,1-.14.16l-2.77,2.77Z" transform="translate(-135.17 -469.43)"/></svg>