<svg id="Слой_1" data-name="Слой 1" xmlns="http://www.w3.org/2000/svg" viewBox="0 0 10.04 10.01"><defs><style>.cls-1{fill:#979697;}</style></defs><path class="cls-1" d="M388.08,398.7a1.18,1.18,0,0,0-1.2-1.19h-7.63a1.18,1.18,0,0,0-1.21,1.22v8.38a.38.38,0,0,0,.35.41.36.36,0,0,0,.42-.33.65.65,0,0,0,0-.14v-8.29c0-.34.14-.48.48-.48h7.54a.44.44,0,0,1,.48.48c0,1.74,0,3.48,0,5.22,0,.33-.15.47-.48.47l-4.87,0a3.65,3.65,0,0,0-1.31.23,2.87,2.87,0,0,0-.9.59.4.4,0,0,0,0,.6.35.35,0,0,0,.43.06l.2-.15a2,2,0,0,1,1.25-.54l.84,0h4.42a1.2,1.2,0,0,0,1.23-1.23Z" transform="translate(-378.04 -397.51)"/><path class="cls-1" d="M385,401.75a.39.39,0,0,0-.39-.38.37.37,0,0,0-.38.38.39.39,0,0,0,.37.39A.4.4,0,0,0,385,401.75Z" transform="translate(-378.04 -397.51)"/><path class="cls-1" d="M383.45,401.75a.39.39,0,0,0-.39-.38.38.38,0,0,0-.39.38.39.39,0,0,0,.38.39A.4.4,0,0,0,383.45,401.75Z" transform="translate(-378.04 -397.51)"/><path class="cls-1" d="M381.9,401.74a.39.39,0,0,0-.77,0,.39.39,0,0,0,.38.39A.39.39,0,0,0,381.9,401.74Z" transform="translate(-378.04 -397.51)"/></svg>