<svg id="Слой_1" data-name="Слой 1" xmlns="http://www.w3.org/2000/svg" viewBox="0 0 13 13"><defs><style>.cls-1{fill:#463e8f;}</style></defs><path class="cls-1" d="M389.5,398.48a.47.47,0,0,0-.48-.25h-3.33v-1.11a1,1,0,0,0-1.09-1.1h-3.12a1,1,0,0,0-1.07,1.07c0,.23,0,.45,0,.69v.45h-3.24a.63.63,0,0,0-.62.3v.31a.68.68,0,0,0,.67.29h1v2.6c0,1.94,0,4,0,5.94A1.29,1.29,0,0,0,379,409h8.11a1.26,1.26,0,0,0,.8-1.36c0-2,0-4,0-5.94,0-.74,0-1.47,0-2.21v-.4h1.18a.47.47,0,0,0,.41-.22A.45.45,0,0,0,389.5,398.48Zm-8.19-1.54h3.49v1.28h-3.49Zm5.61,11.11a.47.47,0,0,1-.33.09h-7.13a.44.44,0,0,1-.29-.08.36.36,0,0,1-.08-.27v-8.35a.53.53,0,0,1,0-.13v-.18H387v8.58A.49.49,0,0,1,386.92,408.05Z" transform="translate(-376.55 -396.03)"/><path class="cls-1" d="M383.5,401.5a.46.46,0,0,0-.44-.52h0a.39.39,0,0,0-.3.12.53.53,0,0,0-.15.41v4.25a.55.55,0,0,0,.16.41.42.42,0,0,0,.32.11.47.47,0,0,0,.42-.53V401.5Z" transform="translate(-376.55 -396.03)"/><path class="cls-1" d="M381.29,401.5a.46.46,0,0,0-.44-.52h0a.39.39,0,0,0-.3.12.53.53,0,0,0-.14.39c0,1.34,0,2.74,0,4.27a.46.46,0,0,0,.43.52.41.41,0,0,0,.31-.12.58.58,0,0,0,.14-.41c0-.51,0-1,0-1.52V403C381.3,402.49,381.3,402,381.29,401.5Z" transform="translate(-376.55 -396.03)"/><path class="cls-1" d="M385.62,401.19a.42.42,0,0,0-.37-.21h-.11a.47.47,0,0,0-.34.46v4.32a.55.55,0,0,0,.15.39.43.43,0,0,0,.31.12.46.46,0,0,0,.43-.5v-4.3A.69.69,0,0,0,385.62,401.19Z" transform="translate(-376.55 -396.03)"/></svg>