<svg id="Слой_1" data-name="Слой 1" xmlns="http://www.w3.org/2000/svg" viewBox="0 0 14.01 11.67"><defs><style>.cls-1{fill:#e31f26;}</style></defs><path class="cls-1" d="M361.26,486.88l-1.34,1.33v-3.84a.58.58,0,1,0-1.16,0v3.84l-1.34-1.33a.58.58,0,1,0-.82.82l2.33,2.33a.5.5,0,0,0,.19.13.57.57,0,0,0,.22,0,.54.54,0,0,0,.22,0,.43.43,0,0,0,.19-.13l2.34-2.33a.59.59,0,0,0,0-.82A.59.59,0,0,0,361.26,486.88Z" transform="translate(-352.34 -478.53)"/><path class="cls-1" d="M365.7,483.53a3.49,3.49,0,0,0-2.86-1.49h-.3a5.25,5.25,0,0,0-10,3,5.32,5.32,0,0,0,1.16,2.17.58.58,0,1,0,.87-.77,4.08,4.08,0,1,1,7-3.72.59.59,0,0,0,.57.44h.73a2.33,2.33,0,0,1,1.34,4.24.59.59,0,0,0-.14.81.61.61,0,0,0,.48.25.57.57,0,0,0,.33-.11,3.48,3.48,0,0,0,.85-4.87Z" transform="translate(-352.34 -478.53)"/></svg>