<svg id="Слой_1" data-name="Слой 1" xmlns="http://www.w3.org/2000/svg" viewBox="0 0 54.67 36.41"><defs><style>.cls-1{fill:#e53238;}</style></defs><path class="cls-1" d="M169.58,489.22c-1.44-.06-2.88,0-4.39,0v-1.14q0-13.17,0-26.35c0-2,0-2-2-2H124.22c-2,0-2,0-2,1.94v26.25c0,.41,0,.82-.06,1.31h-4.26c-1.39,0-1.7.36-1.47,1.73a6.07,6.07,0,0,0,6.11,5.17H164.7a7.12,7.12,0,0,0,1.9-.23c2.43-.66,3.72-2.44,4.45-4.73v-1.87ZM124.05,461.5h39.32v27.6H124.05ZM165,494.36c-4.66,0-9.32,0-14,0H122.69a4.15,4.15,0,0,1-4.37-3.41h50.74A4,4,0,0,1,165,494.36Z" transform="translate(-116.37 -459.7)"/><path class="cls-1" d="M152.07,469.1c-5.4,0-10.8,0-16.21,0-.69,0-1.13-.07-1.23-.9a1.23,1.23,0,0,0-.78-.86,13.7,13.7,0,0,0-2.86.08,1,1,0,0,0-.66.77,1.23,1.23,0,0,0,.65.82,1.9,1.9,0,0,0,1,.07c.76-.08,1.11.16,1.3,1,.63,2.77,1.39,5.5,2,8.27a1.28,1.28,0,0,0,1.47,1.16c2.31,0,4.62,0,6.94,0s4.62,0,6.93,0a1.19,1.19,0,0,0,1.36-1.14c.46-2.51,1-5,1.48-7.52C153.83,469.3,153.65,469.1,152.07,469.1Zm-1.38,7.2c-.15,1.14-.57,1.49-1.75,1.46-3.62-.09-7.25-.05-10.88,0-.75,0-1.14-.14-1.31-1-.4-1.94-.93-3.85-1.45-5.91h16.43C151.37,472.72,150.94,474.5,150.69,476.3Z" transform="translate(-116.37 -459.7)"/><path class="cls-1" d="M154.36,464.82c-.43-.44-.91-.82-1.45-.27s-.21,1.08.26,1.55l5.58,5.57a4.42,4.42,0,0,0,.79.71c.59.36,1.27,0,1.27-.9a4,4,0,0,0-.5-.71C158.34,468.78,156.34,466.8,154.36,464.82Z" transform="translate(-116.37 -459.7)"/><path class="cls-1" d="M139.8,481.53a1.7,1.7,0,0,0-1.7,1.8,1.67,1.67,0,0,0,1.73,1.64,1.72,1.72,0,1,0,0-3.44Z" transform="translate(-116.37 -459.7)"/><path class="cls-1" d="M147.61,481.53a1.75,1.75,0,0,0-1.73,1.68,1.72,1.72,0,0,0,1.74,1.76,1.68,1.68,0,0,0,1.71-1.67A1.7,1.7,0,0,0,147.61,481.53Z" transform="translate(-116.37 -459.7)"/><path class="cls-1" d="M159.27,467.8c.29.23.86.1,1.31.13,0-.44.1-1-.13-1.3a17.16,17.16,0,0,0-1.93-2,5.19,5.19,0,0,0-.77-.47c-.27.23-.63.4-.69.64a1.19,1.19,0,0,0,.18,1A14.35,14.35,0,0,0,159.27,467.8Z" transform="translate(-116.37 -459.7)"/></svg>