<svg id="Слой_1" data-name="Слой 1" xmlns="http://www.w3.org/2000/svg" viewBox="0 0 65.22 65.23"><defs><style>.cls-1{fill:#086385;}</style></defs><path class="cls-1" d="M288.71,369.73a32.59,32.59,0,0,0-38.48-25.16C232.64,348.2,221,366,225.16,383.52c3.26,13.58,12,21.88,25.69,24.9a57.82,57.82,0,0,0,6,.7v-6.5c-1.82-.23-3.56-.33-5.25-.68a26.09,26.09,0,0,1-20.26-30.6c3.32-16.94,22.47-26.13,37.63-17.92a25.21,25.21,0,0,1,13.79,20.75,59.43,59.43,0,0,1,.12,7.55,4.84,4.84,0,0,1-5,4.49,4.92,4.92,0,0,1-4.75-4.75c-.05-2.36.07-4.73-.17-7.07a16.26,16.26,0,1,0-9.12,16.69,54.08,54.08,0,0,0,4.86-3.14c.41.45.89,1.06,1.47,1.59a10.83,10.83,0,0,0,11.36,2.59c4.31-1.45,7.08-4.51,7.66-9A40.47,40.47,0,0,0,288.71,369.73Zm-31.9,16.48a9.76,9.76,0,1,1,9.81-9.74A9.76,9.76,0,0,1,256.81,386.21Z" transform="translate(-224.31 -343.9)"/></svg>