<svg id="Слой_1" data-name="Слой 1" xmlns="http://www.w3.org/2000/svg" viewBox="0 0 14.93 14.92"><defs><style>.cls-1{fill:#0994c6;}</style></defs><path class="cls-1" d="M376.43,403.18c.29,0,.59,0,.88,0s.23.05.3.2a2.09,2.09,0,0,0,2,1.35,2.12,2.12,0,0,0,2-1.33.32.32,0,0,1,.35-.22h7.84a.63.63,0,0,0,.69-.73c0-.33-.32-.54-.75-.54H382c-.16,0-.28,0-.37-.18a2.07,2.07,0,0,0-2-1.36,2.14,2.14,0,0,0-2,1.37.35.35,0,0,1-.24.17,6.46,6.46,0,0,1-.88,0,.88.88,0,0,0-.89.41v.46A.88.88,0,0,0,376.43,403.18Zm3.19-1.57a.93.93,0,1,1-.93.93A.93.93,0,0,1,379.62,401.61Z" transform="translate(-375.57 -395.08)"/><path class="cls-1" d="M389.85,407.21c-.35,0-.7,0-1.05,0s-.28-.06-.35-.25a2.17,2.17,0,0,0-2.84-1.14,2.2,2.2,0,0,0-1.25,1.38h-8a.83.83,0,0,0-.82.41V408a.79.79,0,0,0,.81.44H384a.43.43,0,0,1,.48.29,2.09,2.09,0,0,0,1.42,1.2l.16.06h.81a.31.31,0,0,1,.1-.05,2.21,2.21,0,0,0,1.5-1.31.38.38,0,0,1,.27-.17c.38,0,.76,0,1.14,0a.62.62,0,1,0,0-1.24Zm-3.41,1.54a.92.92,0,1,1,.93-.91A.91.91,0,0,1,386.44,408.75Z" transform="translate(-375.57 -395.08)"/><path class="cls-1" d="M376.39,397.88h7.95a.66.66,0,0,1,.06.12,2.19,2.19,0,0,0,4.09.05.38.38,0,0,1,.25-.16c.35,0,.7,0,1.05,0s.7-.23.71-.6-.25-.64-.7-.65h-1a.3.3,0,0,1-.32-.21,2.17,2.17,0,0,0-4,0,.36.36,0,0,1-.39.25h-7.69a.79.79,0,0,0-.81.44v.41A.85.85,0,0,0,376.39,397.88Zm10.07-1.55a.91.91,0,0,1,.91.93.92.92,0,1,1-.91-.93Z" transform="translate(-375.57 -395.08)"/></svg>