<svg id="Слой_1" data-name="Слой 1" xmlns="http://www.w3.org/2000/svg" viewBox="0 0 63.99 18.11"><defs><style>.cls-1{fill:#52b260;}.cls-1,.cls-2{fill-rule:evenodd;}.cls-2{fill:#06a7de;}</style></defs><g id="g5"><path id="path7" class="cls-1" d="M282.83,371.73h0a3.35,3.35,0,0,0-3.16,2.38c-.61,2.18-2.33,8.21-2.37,8.37h-.48s-1.76-6.16-2.37-8.38a3.35,3.35,0,0,0-3.17-2.37h-5.69v18.11h5.69V379.08h.48l3.32,10.76h4l3.32-10.75h.47v10.75h5.7V371.73Z" transform="translate(-265.59 -371.73)"/></g><g id="g9"><path id="path11" class="cls-1" d="M303.63,371.73a3.19,3.19,0,0,0-2.45,1.89l-4,8.86h-.48V371.73H291v18.11h5.38a3.3,3.3,0,0,0,2.53-1.9l3.95-8.86h.48v10.76H309V371.73Z" transform="translate(-265.59 -371.73)"/></g><g id="g13"><path id="path15" class="cls-1" d="M311.54,380v9.89h5.7v-5.78h6.17a6.15,6.15,0,0,0,5.81-4.11Z" transform="translate(-265.59 -371.73)"/></g><g id="g17"><path id="path24" class="cls-2" d="M323.41,371.73H310.74a9.11,9.11,0,0,0,6.57,7.11h0a8.93,8.93,0,0,0,2.38.32h9.76a5.88,5.88,0,0,0,.13-1.27A6.16,6.16,0,0,0,323.41,371.73Z" transform="translate(-265.59 -371.73)"/></g></svg>