<svg id="Слой_1" data-name="Слой 1" xmlns="http://www.w3.org/2000/svg" viewBox="0 0 10 13.35"><defs><style>.cls-1{fill:#e3181f;}</style></defs><path class="cls-1" d="M318.36,443.71a3.71,3.71,0,0,1-.32-.23,22.51,22.51,0,0,1-3.46-4.61,8.61,8.61,0,0,1-1-2.55,5,5,0,0,1,9.74-2.26,5.27,5.27,0,0,1-.21,3.26,12.72,12.72,0,0,1-1.42,2.74,24.39,24.39,0,0,1-2.71,3.37,2.11,2.11,0,0,1-.37.28Zm.13-1.37.06-.08a24.47,24.47,0,0,0,2.27-2.89,11.52,11.52,0,0,0,1.26-2.41,4.26,4.26,0,0,0,.18-2.57,3.89,3.89,0,0,0-7.6,1.61,6.72,6.72,0,0,0,.69,2,17.37,17.37,0,0,0,2.07,3.09C317.76,441.5,318.12,441.9,318.49,442.34Z" transform="translate(-313.5 -430.36)"/><path class="cls-1" d="M318.5,433.15a2.22,2.22,0,1,1-2.23,2.19A2.23,2.23,0,0,1,318.5,433.15Zm1.11,2.22a1.12,1.12,0,1,0-1.11,1.11A1.12,1.12,0,0,0,319.61,435.37Z" transform="translate(-313.5 -430.36)"/></svg>