<svg id="Слой_1" data-name="Слой 1" xmlns="http://www.w3.org/2000/svg" viewBox="0 0 16.83 14.56"><path d="M151.09,470.45l-.13,0-5.29,1.39c-.28.07-.54.13-.67.43h0a1,1,0,0,1-.05-.16,1.16,1.16,0,0,0-1.51-.88l-1.15.3a1.16,1.16,0,0,0-.83,1.43c0,.08,0,.16.05.27a.78.78,0,0,0-.64-.14c-1.24.35-2.5.67-3.75,1l-1.87.5,1,3.65.12,0,5.34-1.4a.83.83,0,0,0,.64-.43h0a2.5,2.5,0,0,0,.07.26,1.14,1.14,0,0,0,1.36.83c.46-.09.92-.22,1.36-.35a1.16,1.16,0,0,0,.75-1.39c0-.09,0-.18-.07-.29a1.13,1.13,0,0,1,.18.07.46.46,0,0,0,.44,0l5.41-1.42.24-.07Zm-9.6,5.63-4.76,1.25-.57-2.16,1.09-.29,3.56-.94a.52.52,0,0,1,.66.39c.1.4.21.8.31,1.2A.54.54,0,0,1,141.49,476.08Zm8.21-2.15-3.26.85a.51.51,0,0,1-.64-.36c-.1-.41-.21-.81-.32-1.21a.53.53,0,0,1,.34-.58l4.4-1.16.32-.08.56,2.17Z" transform="translate(-135.21 -470.45)"/><path d="M146.17,484.05a5.22,5.22,0,0,1-5.16-1.41l-.53.56a6.13,6.13,0,0,0,10.25-2.72l-.75-.2A5.21,5.21,0,0,1,146.17,484.05Z" transform="translate(-135.21 -470.45)"/><path d="M141.83,480.79l-.51.55a4.64,4.64,0,0,0,7.77-2.07l-.74-.2A3.9,3.9,0,0,1,141.83,480.79Z" transform="translate(-135.21 -470.45)"/><path d="M145.45,480.15a2.9,2.9,0,0,0,1.83-2l-.74-.2a2.2,2.2,0,0,1-3.67,1l-.53.53A2.89,2.89,0,0,0,145.45,480.15Z" transform="translate(-135.21 -470.45)"/></svg>