<svg id="Слой_1" data-name="Слой 1" xmlns="http://www.w3.org/2000/svg" viewBox="0 0 16.94 16.91"><defs><style>.cls-1{fill:#4a4391;}</style></defs><path class="cls-1" d="M367.31,482.43a8.58,8.58,0,0,0-3.26-5.22,7.45,7.45,0,0,0-2.14-1.18.48.48,0,0,0-.55.13.49.49,0,0,0,0,.57.56.56,0,0,0,.36.28,7.44,7.44,0,0,1,4.77,7.05h0s0,.09,0,.14,0,.3,0,.47,0,.28-.05.45a7.55,7.55,0,0,1-8.12,6.29,7.4,7.4,0,0,1-4.35-2,7.15,7.15,0,0,1-2.33-6.15,7.08,7.08,0,0,1,2.6-4.93A7.49,7.49,0,0,1,359,476.5a.45.45,0,0,0,.45-.38.52.52,0,0,0-.09-.45.48.48,0,0,0-.38-.15h0a10.27,10.27,0,0,0-1.52.15,8.47,8.47,0,0,0-6.91,8.3,8,8,0,0,0,1.31,4.49,8.14,8.14,0,0,0,8,3.92,8.46,8.46,0,0,0,7.47-9.95Z" transform="translate(-350.53 -475.52)"/><path class="cls-1" d="M359,482a.68.68,0,0,0-.66.75v5.14a.67.67,0,1,0,1.33,0v-5.15A.67.67,0,0,0,359,482Z" transform="translate(-350.53 -475.52)"/><path class="cls-1" d="M359,479.33a.66.66,0,0,0-.65.69.67.67,0,1,0,.65-.69Z" transform="translate(-350.53 -475.52)"/></svg>