<svg id="Слой_1" data-name="Слой 1" xmlns="http://www.w3.org/2000/svg" viewBox="0 0 15.76 15.76"><defs><style>.cls-1{fill:#e32126;}</style></defs><path class="cls-1" d="M326.18,440a4.37,4.37,0,0,1-4.58,4.57c-1.3.08-5.2.08-6.5,0a4.36,4.36,0,0,1-4.57-4.57c-.08-1.3-.08-5.2,0-6.5A4.36,4.36,0,0,1,315.1,429c1.3-.08,5.2-.08,6.5,0a4.37,4.37,0,0,1,4.58,4.57C326.25,434.83,326.25,438.73,326.18,440Zm-1.37-3.25c0-1.15.1-3.61-.31-4.64a2.64,2.64,0,0,0-1.5-1.5,33.87,33.87,0,0,0-9.29,0,2.7,2.7,0,0,0-1.5,1.5,17.78,17.78,0,0,0-.31,4.64c0,1.15-.1,3.61.31,4.64a2.64,2.64,0,0,0,1.5,1.5,33.87,33.87,0,0,0,9.29,0,2.7,2.7,0,0,0,1.5-1.5C324.91,440.39,324.81,437.93,324.81,436.78Zm-2.42,0a4,4,0,1,1-4-4A4,4,0,0,1,322.39,436.78Zm-1.41,0a2.63,2.63,0,1,0-2.63,2.63A2.63,2.63,0,0,0,321,436.78Zm1.58-3.26a.95.95,0,1,1,.94-.94A.94.94,0,0,1,322.56,433.52Z" transform="translate(-310.47 -428.9)"/></svg>