<svg id="Слой_1" data-name="Слой 1" xmlns="http://www.w3.org/2000/svg" viewBox="0 0 13.06 15.51"><defs><style>.cls-1{fill:#e62d34;}</style></defs><path class="cls-1" d="M298.06,427.24l3.33-3.33-1.69-1.69a3,3,0,0,1-3.69-4.63,3,3,0,0,1,4.55,3.76l.13.14c.65.65,1.3,1.29,1.94,1.94a.6.6,0,0,1,0,.95l-4.1,4.11a.59.59,0,0,1-.9,0c-1.44-1.44-2.9-2.86-4.31-4.33a6.2,6.2,0,0,1-1.74-5.1,6.52,6.52,0,1,1,12.49,3.21.6.6,0,0,1-.79.35.59.59,0,0,1-.31-.8,5.52,5.52,0,0,0,.43-2,5.19,5.19,0,0,0-.81-3,5.25,5.25,0,0,0-3.86-2.47,5.3,5.3,0,0,0-5.81,3.91,5.13,5.13,0,0,0,1.33,5.1c1.22,1.27,2.49,2.5,3.74,3.75Zm1.8-7.52a1.78,1.78,0,1,0-1.78,1.78A1.8,1.8,0,0,0,299.86,419.72Z" transform="translate(-291.55 -413.19)"/></svg>