<svg id="Слой_1" data-name="Слой 1" xmlns="http://www.w3.org/2000/svg" viewBox="0 0 73.31 73.33"><defs><style>.cls-1{fill: #086284;}</style></defs><path class="cls-1" d="M292.85,369.07a36.62,36.62,0,0,0-43.25-28.28c-19.78,4.07-32.89,24.13-28.19,43.78,3.66,15.27,13.53,24.6,28.89,28a63.1,63.1,0,0,0,6.71.79v-7.3c-2-.26-4-.38-5.9-.77a29.34,29.34,0,0,1-22.78-34.4c3.73-19,25.27-29.38,42.31-20.15,9.2,5,14.49,12.83,15.5,23.33a65,65,0,0,1,.13,8.49,5.45,5.45,0,0,1-5.6,5.05,5.53,5.53,0,0,1-5.33-5.34c-.06-2.65.08-5.32-.2-7.95a18.27,18.27,0,1,0-10.25,18.77,58.27,58.27,0,0,0,5.46-3.54c.46.5,1,1.2,1.65,1.79,3.7,3.38,8,4.51,12.77,2.91s8-5.07,8.61-10.16A45.07,45.07,0,0,0,292.85,369.07ZM257,387.6a11,11,0,1,1,11-11A11,11,0,0,1,257,387.6Z" transform="translate(-220.46 -340.03)"/></svg>