<svg id="Слой_1" data-name="Слой 1" xmlns="http://www.w3.org/2000/svg" viewBox="0 0 11.97 8.99"><defs><style>.cls-1{fill:#2f2f30;}</style></defs><path class="cls-1" d="M365.1,487.43a4.19,4.19,0,0,1-.38.69,1.26,1.26,0,0,1-1.06.48h-9a1.43,1.43,0,0,1-1.49-1.49v-6a1.44,1.44,0,0,1,1.49-1.49h8.92a1.45,1.45,0,0,1,1.53,1.11s0,0,0,.06Zm-11.2-4.58V487c0,.6.19.8.8.8h8.85c.56,0,.79-.22.79-.77v-3.95a2.5,2.5,0,0,0,0-.25l-.25.15c-1.56.94-3.13,1.87-4.68,2.82a.48.48,0,0,1-.54,0l-2.66-1.61Zm5.21-2.47H354.6c-.49,0-.69.22-.7.7,0,.21,0,.41,0,.61a.35.35,0,0,0,.2.35q2.42,1.43,4.81,2.88a.34.34,0,0,0,.4,0c1.47-.88,2.93-1.77,4.43-2.61a1,1,0,0,0,.62-1.1c-.06-.62-.21-.82-.82-.82Z" transform="translate(-353.13 -479.62)"/></svg>