<svg xmlns="http://www.w3.org/2000/svg" width="327.55" height="424.48" viewBox="0 0 327.55 424.48">
	<style type="text/css">
		.st1{fill:#e61915;}
		.st0{fill:#ffffff;}
	</style>
	<path class="st0" d="M274.35,162.87C274.3,224.31 224.11,274.93 163.19,275C102.18,275.06 52.02,225.05 51.79,163.93C51.56,102.16 101.66,51.63 163.17,51.59C224.07,51.55 274.4,101.92 274.35,162.87"/>
	<path class="st1" d="M255.53,162.94C255.57,112.3 213.75,70.44 163.16,70.48C112.05,70.51 70.42,112.5 70.61,163.82C70.8,214.6 112.48,256.16 163.17,256.11C213.79,256.05 255.49,213.99 255.53,162.94M327.55,162.7C326.9,191.73 318.55,218.42 306,244.13C289.56,277.79 268.44,308.4 245.25,337.6C224.26,364.03 202.65,389.99 181.07,415.95C172.1,426.73 155.65,427.54 146.7,417C105.66,368.74 63.8,321.05 32.06,265.77C20.05,244.86 9.38,223.24 4.08,199.47C-15.68,110.91 38.28,25.55 123.59,4.79C214.12,-17.23 303.04,38.7 323.07,129.69C325.45,140.5 326.1,151.69 327.55,162.7"/>
</svg>