<svg xmlns="http://www.w3.org/2000/svg" width="24" height="22" viewBox="0 0 24 22">
	<style type="text/css">
		.st0{fill:#000000;}
	</style>
	<path class="st0" d="M22,16.42L17,19.27L17,5.58L22,2.72ZM2,5.58L7,2.72L7,16.42L2,19.27ZM9,2.61L15,5.61L15,19.38L9,16.38ZM23.5,0.13C23.19,-0.04 22.81,-0.04 22.5,0.13L15.96,3.86L8.44,0.1C8.43,0.1 8.42,0.09 8.4,0.09C8.38,0.08 8.36,0.07 8.34,0.07C8.24,0.03 8.13,0 8.02,0C8.01,0 8.01,0 8,0C7.99,0 7.99,0 7.98,0C7.87,0 7.76,0.02 7.64,0.07C7.62,0.08 7.6,0.09 7.57,0.1C7.55,0.11 7.52,0.11 7.5,0.13L0.5,4.13C0.19,4.31 0,4.64 0,5L0,21C0,21.35 0.19,21.68 0.49,21.86C0.8,22.04 1.18,22.04 1.49,21.86L8.03,18.13L15.55,21.89C15.56,21.89 15.57,21.89 15.57,21.9C15.7,21.96 15.84,22 16,22C16.11,22 16.23,21.97 16.34,21.93C16.37,21.92 16.39,21.91 16.42,21.89C16.44,21.88 16.47,21.88 16.49,21.86L23.49,17.86C23.8,17.69 24,17.35 24,17L24,1C24,0.64 23.81,0.31 23.5,0.13"/>
</svg>