<svg xmlns="http://www.w3.org/2000/svg" width="564.5" height="439.29" viewBox="0 0 564.5 439.29">
	<style type="text/css">
		.st2{fill:#ff5f01;fill-rule:evenodd;}
		.st1{fill:#ea001b;fill-rule:evenodd;}
		.st4{fill:#000000;}
		.st3{fill:#f79f1a;}
		.st0{fill:#f79f1a;fill-rule:evenodd;}
	</style>
	<path class="st0" d="M564.5,174.9C564.5,271.49 486.34,349.8 389.93,349.8C293.52,349.8 215.36,271.49 215.36,174.9C215.36,78.3 293.52,0 389.93,0C486.34,0 564.5,78.3 564.5,174.9"/>
	<path class="st1" d="M349.14,174.9C349.14,271.49 270.98,349.8 174.57,349.8C78.15,349.8 0,271.49 0,174.9C0,78.3 78.15,0 174.57,0C270.98,0 349.14,78.3 349.14,174.9"/>
	<path class="st2" d="M282.25,37.21C241.52,69.23 215.37,118.99 215.37,174.88C215.37,230.77 241.52,280.57 282.25,312.59C322.98,280.57 349.13,230.77 349.13,174.88C349.13,118.99 322.98,69.23 282.25,37.21"/>
	<path class="st3" d="M553.85,267.7L553.85,262.52L555.94,262.52L555.94,261.47L550.62,261.47L550.62,262.52L552.71,262.52L552.71,267.7ZM564.18,267.7L564.18,261.46L562.55,261.46L560.67,265.75L558.8,261.46L557.17,261.46L557.17,267.7L558.32,267.7L558.32,262.99L560.07,267.05L561.27,267.05L563.03,262.98L563.03,267.7Z"/>
	<path class="st4" d="M38.83,436.32L28.92,436.32L28.92,390.09L38.64,390.09L38.64,395.73C38.64,395.73 47.17,388.84 52.23,388.93C62.08,389.1 67.97,397.48 67.97,397.48C67.97,397.48 72.74,388.93 83.5,388.93C99.43,388.93 101.76,403.5 101.76,403.5L101.76,436.13L92.25,436.13L92.25,407.38C92.25,407.38 92.28,398.64 81.95,398.64C71.27,398.64 70.3,407.38 70.3,407.38L70.3,436.13L60.39,436.13L60.39,407.19C60.39,407.19 59.44,398.06 50.48,398.06C38.85,398.06 38.64,407.38 38.64,407.38Z"/>
	<path class="st4" d="M340.09,388.92C335.02,388.84 326.49,395.72 326.49,395.72L326.49,390.1L316.77,390.1L316.77,436.32L326.68,436.32L326.49,407.38C326.49,407.38 326.71,398.08 338.34,398.08C340.5,398.08 342.18,398.6 343.51,399.4L343.51,399.37L346.73,390.37C344.79,389.55 342.57,388.97 340.09,388.92"/>
	<path class="st4" d="M479.63,388.92C474.57,388.84 466.04,395.72 466.04,395.72L466.04,390.1L456.32,390.1L456.32,436.32L466.23,436.32L466.04,407.38C466.04,407.38 466.26,398.08 477.89,398.08C480.05,398.08 481.72,398.6 483.05,399.4L483.05,399.37L486.28,390.37C484.33,389.55 482.12,388.97 479.63,388.92"/>
	<path class="st4" d="M135.69,398.15C143.66,398.15 150.13,405.08 150.13,413.61C150.13,422.14 143.66,429.03 135.69,429.03C127.73,429.03 121.3,422.14 121.3,413.61C121.3,405.08 127.73,398.15 135.69,398.15M133.79,388.73C118.97,388.73 111.12,402.06 111.08,413.19C111.04,424.6 120.02,437.76 134.21,437.76C142.49,437.76 149.3,431.65 149.3,431.65L149.28,436.36L159.03,436.36L159.03,390.08L149.25,390.08L149.25,395.91C149.25,395.91 142.86,388.73 133.8,388.73Z"/>
	<path class="st4" d="M420.06,398.15C428.03,398.15 434.49,405.08 434.49,413.61C434.49,422.14 428.03,429.03 420.06,429.03C412.09,429.03 405.67,422.14 405.67,413.61C405.67,405.08 412.09,398.15 420.06,398.15M418.16,388.73C403.34,388.73 395.49,402.06 395.45,413.19C395.41,424.6 404.38,437.76 418.58,437.76C426.86,437.76 433.66,431.65 433.66,431.65L433.65,436.36L443.4,436.36L443.4,390.08L433.61,390.08L433.61,395.91C433.61,395.91 427.22,388.73 418.16,388.73"/>
	<path class="st4" d="M513.68,398.15C521.65,398.15 528.12,405.08 528.12,413.61C528.12,422.14 521.65,429.03 513.68,429.03C505.72,429.03 499.29,422.14 499.29,413.61C499.29,405.08 505.72,398.15 513.68,398.15M511.79,388.73C496.96,388.73 489.11,402.06 489.07,413.19C489.03,424.6 498.01,437.76 512.2,437.76C520.48,437.76 527.29,431.65 527.29,431.65L527.27,436.36L537.02,436.36L537.02,371.82L527.24,371.82L527.24,395.91C527.24,395.91 520.85,388.73 511.79,388.73"/>
	<path class="st4" d="M188.78,437.88C178.68,437.88 169.36,431.66 169.36,431.66L173.63,425.06C173.63,425.06 182.45,429.14 188.78,429.14C192.89,429.14 199.77,427.81 199.85,423.7C199.94,419.35 188.3,418.06 188.3,418.06C188.3,418.06 170.91,417.83 170.91,403.5C170.91,394.48 179.59,388.73 190.72,388.73C197.16,388.73 209.18,394.37 209.18,394.37L204.32,401.94C204.32,401.94 195.04,398.23 190.14,398.06C186.01,397.91 181.01,399.89 181.01,403.5C181.01,413.3 209.95,402.73 209.95,422.53C209.95,435.52 198.17,437.88 188.78,437.88"/>
	<path class="st4" d="M226.04,376.69L226.04,390.14L217.42,390.14L217.42,399.86L226.04,399.86L226.04,423.1C226.04,423.1 225.28,438.83 242.18,438.83C246.86,438.83 256.01,435.37 256.01,435.37L252.09,425.27C252.09,425.27 248.46,428.37 244.35,428.27C236.54,428.07 236.75,423.07 236.75,423.07L236.75,399.86L252.85,399.86L252.85,390.14L236.75,390.14L236.75,376.69Z"/>
	<path class="st4" d="M283.27,398.38C283.65,398.36 284.05,398.38 284.45,398.38C296.35,398.38 296.26,409.62 296.26,409.62L272.22,409.62C272.22,409.62 271.65,399.04 283.27,398.38M284.72,389.3C268.82,389.3 260.88,402.4 260.94,413.76C261.01,425.45 268.18,438.6 285.67,438.6C293.15,438.6 303.67,432.03 303.67,432.03L299.15,424.17C299.15,424.17 291.97,429.26 285.67,429.26C273.04,429.26 272.22,416.91 272.22,416.91L306.02,416.91C306.02,416.91 308.55,389.3 284.72,389.3"/>
	<path class="st4" d="M385.26,424.05L389.79,433.11C389.79,433.11 382.61,437.78 374.54,437.78C357.85,437.78 348.58,425.22 348.58,413.33C348.58,394.65 363.33,389.16 373.31,389.16C382.36,389.16 390.2,394.38 390.2,394.38L385.12,403.44C385.12,403.44 382.04,398.64 373.03,398.64C364.04,398.64 359.3,406.39 359.3,413.75C359.3,421.99 364.82,428.99 373.17,428.99C379.72,428.99 385.26,424.05 385.26,424.05"/>
	<path class="st4" d="M557.73,433.27C557.98,433.27 558.17,433.32 558.31,433.41C558.45,433.51 558.53,433.65 558.53,433.84C558.53,434.03 558.45,434.18 558.31,434.28C558.17,434.37 557.98,434.42 557.73,434.42L556.67,434.42L556.67,433.27ZM557.74,432.46L555.74,432.46L555.74,436.78L556.67,436.78L556.67,435.16L557.09,435.16L558.4,436.78L559.51,436.78L558.09,435.15C558.54,435.1 558.88,434.95 559.11,434.72C559.35,434.49 559.47,434.2 559.48,433.84C559.47,433.41 559.32,433.08 559.02,432.83C558.72,432.59 558.3,432.46 557.74,432.46M557.47,438.27C556.42,438.24 555.56,437.89 554.88,437.21C554.2,436.52 553.85,435.67 553.82,434.64C553.85,433.6 554.2,432.75 554.88,432.07C555.56,431.39 556.42,431.04 557.47,431.02C558.49,431.04 559.34,431.39 560.01,432.07C560.69,432.75 561.04,433.6 561.06,434.64C561.04,435.67 560.69,436.52 560.01,437.21C559.34,437.89 558.49,438.24 557.47,438.27M557.47,429.98C556.09,430.01 554.96,430.47 554.07,431.35C553.19,432.22 552.73,433.32 552.69,434.64C552.73,435.95 553.19,437.04 554.07,437.92C554.96,438.8 556.09,439.26 557.47,439.29C558.81,439.26 559.92,438.8 560.82,437.92C561.71,437.04 562.17,435.95 562.2,434.64C562.17,433.32 561.71,432.22 560.82,431.35C559.93,430.47 558.81,430.01 557.47,429.98"/>
</svg>