<svg xmlns="http://www.w3.org/2000/svg" width="809" height="229" viewBox="0 0 809 229">
	<style type="text/css">
		.st0{fill:#4db45e;fill-rule:evenodd;}
	</style>
	<path class="st0" d="M218,0L218,0.1C217.89,0.1 186.39,0 178,30.1C170.3,57.7 148.6,133.89 148,136L142,136C142,136 119.8,58.1 112,30C103.59,-0.1 72,0 72,0L0,0L0,229L72,229L72,93L75,93L78,93L120,229L170,229L212,93.1L218,93.1L218,229L290,229L290,0Z"/>
	<path class="st0" d="M481,0C481,0 459.89,1.89 450,24L399,136L393,136L393,0L321,0L321,229L389,229C389,229 411.1,227 421,205L471,93L477,93L477,229L549,229L549,0Z"/>
	<path class="st0" d="M581,104L581,229L653,229L653,156L731,156C765,156 793.79,134.3 804.5,104Z"/>
</svg>