<svg id="Слой_1" data-name="Слой 1" xmlns="http://www.w3.org/2000/svg" viewBox="0 0 8.07 9.08"><defs><style>.cls-1{fill:#e31f26;}</style></defs><path class="cls-1" d="M379,398.51v8.07a.51.51,0,0,0,.29.46.54.54,0,0,0,.22,0,.51.51,0,0,0,.31-.11l5.05-4a.51.51,0,0,0,0-.79l-5.05-4a.49.49,0,0,0-.53-.07A.52.52,0,0,0,379,398.51Zm1,1.05,3.74,3-3.74,3Z" transform="translate(-379.02 -398.01)"/><path class="cls-1" d="M386.59,398.51a.51.51,0,0,1,.51.5v7.07a.5.5,0,0,1-.51.5.5.5,0,0,1-.5-.5V399A.5.5,0,0,1,386.59,398.51Z" transform="translate(-379.02 -398.01)"/></svg>