<svg id="Слой_1" data-name="Слой 1" xmlns="http://www.w3.org/2000/svg" viewBox="0 0 10.96 17.53"><defs><style>.cls-1{fill:#010101;}</style></defs><path class="cls-1" d="M147.47,469.14h-7.68a1.65,1.65,0,0,0-1.64,1.64V485a1.65,1.65,0,0,0,1.64,1.64h7.68a1.65,1.65,0,0,0,1.64-1.64V470.78A1.65,1.65,0,0,0,147.47,469.14ZM142,470.23h3.28v.55a.55.55,0,0,1-.54.55h-2.2a.55.55,0,0,1-.54-.55Zm6,14.8a.54.54,0,0,1-.54.54h-7.68a.54.54,0,0,1-.54-.54V470.78a.55.55,0,0,1,.54-.55h1.1v.55a1.65,1.65,0,0,0,1.64,1.65h2.2a1.65,1.65,0,0,0,1.64-1.65v-.55h1.1a.55.55,0,0,1,.54.55Z" transform="translate(-138.15 -469.14)"/><path class="cls-1" d="M144.18,483.38h-1.1a.55.55,0,0,0,0,1.1h1.1a.55.55,0,0,0,0-1.1Z" transform="translate(-138.15 -469.14)"/></svg>