<svg id="Слой_1" data-name="Слой 1" xmlns="http://www.w3.org/2000/svg" viewBox="0 0 45.76 45.76"><defs><style>.cls-1{fill:#fff;}</style></defs><path class="cls-1" d="M278.22,369.2a3.18,3.18,0,0,0-2.84-2.38c-.75-.07-1.51-.13-2.26-.21-2.86-.28-5.72-.59-8.58-.85a.7.7,0,0,1-.65-.46c-1.89-3.78-3.8-7.55-5.7-11.32a3,3,0,0,0-5.56,0l-5.72,11.35a.68.68,0,0,1-.64.43c-1,.06-1.89.17-2.84.26-2.66.27-5.33.54-8,.79a3.15,3.15,0,0,0-2.86,2.47,3.09,3.09,0,0,0,.9,2.74c3,3,6,6,9.06,9a.79.79,0,0,1,.23.89q-1.71,6.15-3.38,12.33a3,3,0,0,0,2.18,3.6c.2.05.41.08.61.12h.36a4.75,4.75,0,0,0,1-.27q3.64-1.77,7.27-3.59a1.38,1.38,0,0,0,.72-1.55,1.43,1.43,0,0,0-2.12-1l-6.67,3.31-.56.24c.05-.24.07-.41.12-.57,1.18-4.3,2.35-8.59,3.54-12.88a1.83,1.83,0,0,0-.52-2q-4.83-4.74-9.62-9.52c-.11-.1-.2-.21-.37-.4l1.94-.18c3.29-.33,6.57-.68,9.86-1a2.35,2.35,0,0,0,2.13-1.45c1.92-3.92,3.92-7.81,5.89-11.71.07-.15.16-.3.29-.54.47.94.9,1.78,1.33,2.63q2.52,5,5,10a1.51,1.51,0,0,0,1.19,1c1.48.17,3,.31,4.44.45l6.75.66c.42,0,.83.1,1.25.15l.09.17a6,6,0,0,0-.72.59,1.41,1.41,0,0,0,0,1.88,1.37,1.37,0,0,0,1.85.24,3.53,3.53,0,0,0,1.46-2l.18-.64v-.71S278.23,369.24,278.22,369.2Z" transform="translate(-232.54 -352.16)"/><path class="cls-1" d="M274.77,376.34a12.52,12.52,0,0,0-8.58-4.15,12.21,12.21,0,0,0-9.51,3.55c-3.14,3-4.7,6.71-4,11,.9,5.46,4.19,9,9.45,10.69a21,21,0,0,0,2.12.45h2.33c.69-.14,1.4-.23,2.08-.44a13.14,13.14,0,0,0,9.52-10.66c0-.21.07-.41.11-.61v-2.33a1,1,0,0,1-.08-.25A12.57,12.57,0,0,0,274.77,376.34Zm-9.4,18.72a10,10,0,1,1,10.07-9.95A9.8,9.8,0,0,1,265.37,395.06Z" transform="translate(-232.54 -352.16)"/><path class="cls-1" d="M271.08,383.62h-4.23v-.53c0-1.27,0-2.53,0-3.8a1.43,1.43,0,0,0-2.85,0c0,.85,0,1.7,0,2.55v1.77H259.8a1.43,1.43,0,1,0,0,2.86H264V387c0,1.28,0,2.57,0,3.85a1.43,1.43,0,0,0,2.85,0c0-.83,0-1.67,0-2.5v-1.81h4.24a1.43,1.43,0,1,0,0-2.86Z" transform="translate(-232.54 -352.16)"/></svg>