<svg id="Слой_1" data-name="Слой 1" xmlns="http://www.w3.org/2000/svg" viewBox="0 0 16.96 16.21"><defs><style>.cls-1{fill:#fab91b;}</style></defs><path class="cls-1" d="M353.71,491.33c.12-.74.26-1.56.39-2.38s.24-1.56.38-2.33a.48.48,0,0,0-.17-.5L351,482.9c-.36-.34-.41-.75-.11-1a1,1,0,0,1,.5-.25c1.52-.24,3-.47,4.57-.69a.58.58,0,0,0,.5-.36c.63-1.34,1.28-2.68,1.92-4,.16-.33.33-.65.78-.64s.57.32.73.64q1,2,2,4a.58.58,0,0,0,.37.26l4.58.63a.78.78,0,0,1,.74.49.79.79,0,0,1-.31.86c-1.06,1-2.09,2.1-3.17,3.13a.73.73,0,0,0-.21.77c.27,1.48.53,3,.8,4.44a.69.69,0,0,1-.25.75.71.71,0,0,1-.82,0c-1.35-.7-2.72-1.39-4.07-2.1a.65.65,0,0,0-.71,0l-4,2.17A.71.71,0,0,1,353.71,491.33Z" transform="translate(-350.65 -475.92)"/></svg>