<svg id="Слой_1" data-name="Слой 1" xmlns="http://www.w3.org/2000/svg" viewBox="0 0 12.7 10.76"><defs><style>.cls-1{fill:#463e8f;}</style></defs><path class="cls-1" d="M379.2,402.47l1.44-1.14a.5.5,0,0,1,.59-.07.46.46,0,0,1,0,.78c-.51.42-1,.82-1.55,1.23-.23.18-.45.37-.68.54a.44.44,0,0,1-.68-.09c-.65-.86-1.28-1.73-1.91-2.6a.45.45,0,0,1,.08-.66.44.44,0,0,1,.65.12c.31.4.61.82.91,1.23l.2.25a5.32,5.32,0,0,1,1-2.65,5.17,5.17,0,0,1,5-2.2,5.1,5.1,0,0,1,4.39,3.43,5.34,5.34,0,0,1-4.37,7.24,5.21,5.21,0,0,1-4.38-1.47.46.46,0,1,1,.64-.66,4.46,4.46,0,1,0-1.36-3.37S379.18,402.42,379.2,402.47Z" transform="translate(-376.3 -397.17)"/></svg>