<svg xmlns="http://www.w3.org/2000/svg" width="32" height="32" viewBox="0 0 32 32">
	<style type="text/css">
		.st0{fill:#121313;fill-rule:evenodd;}
	</style>
	<path class="st0" d="M16,30C8.26,30 2,23.73 2,16C2,8.26 8.26,2 16,2C23.73,2 30,8.26 30,16C30,23.73 23.73,30 16,30M16,0C7.16,0 0,7.16 0,16C0,24.83 7.16,32 16,32C24.83,32 32,24.83 32,16C32,7.16 24.83,0 16,0"/>
	<path class="st0" d="M22.72,21.27L17.46,16L22.69,10.8C23.09,10.41 23.09,9.78 22.69,9.39C22.3,9 21.66,9 21.27,9.39L16.04,14.58L10.73,9.27C10.33,8.87 9.69,8.87 9.3,9.27C8.9,9.66 8.9,10.3 9.3,10.7L14.6,16L9.27,21.29C8.87,21.68 8.87,22.31 9.27,22.7C9.66,23.09 10.3,23.09 10.7,22.7L16.02,17.42L21.3,22.7C21.69,23.09 22.33,23.09 22.73,22.7C23.12,22.3 23.12,21.66 22.72,21.27"/>
</svg>