<svg id="Слой_1" data-name="Слой 1" xmlns="http://www.w3.org/2000/svg" viewBox="0 0 34.75 34.75"><defs><style>.cls-1{fill:#e6302c;}.cls-2{fill:#fff;}</style></defs><circle class="cls-1" cx="17.38" cy="17.38" r="17.38"/><path class="cls-2" d="M375.46,399.65a3,3,0,0,1,.94.14,2.41,2.41,0,0,1,.68.36,1.69,1.69,0,0,1,.42.48,1.25,1.25,0,0,1,.15.49.17.17,0,0,1-.06.16.22.22,0,0,1-.15.06h-.56a.33.33,0,0,1-.21-.06.58.58,0,0,1-.12-.14,1,1,0,0,0-.37-.34,1.38,1.38,0,0,0-.72-.15,1.75,1.75,0,0,0-.4,0,1,1,0,0,0-.32.13.62.62,0,0,0-.22.2.46.46,0,0,0-.08.28.56.56,0,0,0,.07.3.71.71,0,0,0,.26.2,3.78,3.78,0,0,0,.47.15l.74.17a5.61,5.61,0,0,1,.83.24,2.2,2.2,0,0,1,.57.34,1.28,1.28,0,0,1,.32.45,1.38,1.38,0,0,1,.11.59,1.34,1.34,0,0,1-.16.66,1.44,1.44,0,0,1-.45.53,2.16,2.16,0,0,1-.73.35,3.25,3.25,0,0,1-1,.13,3.49,3.49,0,0,1-.86-.11,2.61,2.61,0,0,1-.72-.31,1.84,1.84,0,0,1-.51-.49,1.25,1.25,0,0,1-.21-.64.16.16,0,0,1,.06-.16.2.2,0,0,1,.15-.06H374a.41.41,0,0,1,.21.05.33.33,0,0,1,.12.14,1.28,1.28,0,0,0,.14.21.63.63,0,0,0,.21.18,1.34,1.34,0,0,0,.34.14,2.44,2.44,0,0,0,.51.05,2.32,2.32,0,0,0,.46,0,1.25,1.25,0,0,0,.4-.12.71.71,0,0,0,.27-.21.44.44,0,0,0,.1-.3.36.36,0,0,0-.11-.29.78.78,0,0,0-.34-.19,3.9,3.9,0,0,0-.56-.16q-.35-.06-.78-.18a3.59,3.59,0,0,1-.7-.23,1.65,1.65,0,0,1-.5-.32,1.34,1.34,0,0,1-.29-.45,1.93,1.93,0,0,1-.09-.62,1.41,1.41,0,0,1,.16-.67,1.55,1.55,0,0,1,.44-.52,2.41,2.41,0,0,1,.66-.34A2.84,2.84,0,0,1,375.46,399.65Z" transform="translate(-365.68 -385.15)"/><path class="cls-2" d="M381.28,399.73a.24.24,0,0,1,.19.07.53.53,0,0,1,.11.2l2,5.06a.07.07,0,0,1,0,.05.24.24,0,0,1-.22.22h-.57a.29.29,0,0,1-.23-.07.51.51,0,0,1-.09-.13l-.34-.89h-2.53l-.34.89a.51.51,0,0,1-.09.13.28.28,0,0,1-.22.07h-.58a.18.18,0,0,1-.15-.07.21.21,0,0,1-.07-.15.43.43,0,0,1,0-.05l2-5.06a.53.53,0,0,1,.11-.2.26.26,0,0,1,.2-.07Zm.44,3.51-.88-2.28-.88,2.28Z" transform="translate(-365.68 -385.15)"/><path class="cls-2" d="M388,404.33a.22.22,0,0,1,.15.06.24.24,0,0,1,.06.15v.57a.2.2,0,0,1-.06.15.19.19,0,0,1-.15.07h-3.51a.18.18,0,0,1-.15-.07.2.2,0,0,1-.06-.15v-5.17a.24.24,0,0,1,.06-.15.2.2,0,0,1,.15-.06h.65a.2.2,0,0,1,.15.06.26.26,0,0,1,.07.15v4.39Z" transform="translate(-365.68 -385.15)"/><path class="cls-2" d="M392.71,404.33a.2.2,0,0,1,.15.06.24.24,0,0,1,.06.15v.57a.2.2,0,0,1-.06.15.18.18,0,0,1-.15.07H389.2a.21.21,0,0,1-.16-.07.2.2,0,0,1-.06-.15v-5.17a.24.24,0,0,1,.06-.15.25.25,0,0,1,.16-.06h3.44a.25.25,0,0,1,.16.06.24.24,0,0,1,.06.15v.57a.2.2,0,0,1-.06.15.21.21,0,0,1-.16.07h-2.58V402h2.41a.2.2,0,0,1,.15.06.25.25,0,0,1,.06.16v.56a.25.25,0,0,1-.06.16.2.2,0,0,1-.15.06h-2.41v1.33Z" transform="translate(-365.68 -385.15)"/></svg>