<svg id="Слой_1" data-name="Слой 1" xmlns="http://www.w3.org/2000/svg" viewBox="0 0 14.78 16.02"><defs><style>.cls-1{fill:#e31f26;}</style></defs><path class="cls-1" d="M298.06,415.81l-.25.23c-1.64,1.64-3.27,3.28-4.92,4.92a1.27,1.27,0,0,1-2.18-.52,1.29,1.29,0,0,1,.38-1.33l3.1-3.09,2.85-2.85a1.29,1.29,0,0,1,2,0l6,6a1.3,1.3,0,0,1,.05,1.87,1.27,1.27,0,0,1-1.86,0l-3.73-3.72Z" transform="translate(-290.65 -412.69)"/><path class="cls-1" d="M298,423.08a2,2,0,0,1-.22.29l-4.91,4.92a1.28,1.28,0,0,1-2.18-.53,1.25,1.25,0,0,1,.37-1.31c.59-.58,1.17-1.17,1.76-1.76l4.14-4.14a1.32,1.32,0,0,1,2.11,0l5.89,5.88a1.3,1.3,0,0,1,.09,1.89,1.28,1.28,0,0,1-1.88,0l-4.51-4.51Z" transform="translate(-290.65 -412.69)"/></svg>