<svg id="Слой_1" data-name="Слой 1" xmlns="http://www.w3.org/2000/svg" viewBox="0 0 40.97 27.81"><defs><style>.cls-1{fill:#e31f26;}</style></defs><path class="cls-1" d="M379.6,472.54a2.19,2.19,0,0,0-2.35-2.33H341a2.21,2.21,0,0,0-2.4,2.42v22.91a2.23,2.23,0,0,0,2.49,2.48H377.2a2.2,2.2,0,0,0,2.4-2.38Zm-1.46,23c0,.78-.23,1-1,1h-36c-.87,0-1.07-.2-1.07-1.08V472.7c0-.81.22-1,1-1h36c.77,0,1,.23,1,1Z" transform="translate(-338.63 -470.21)"/><path class="cls-1" d="M356.58,481.79c-1.33-.19-2.65-.4-4-.58a.54.54,0,0,1-.5-.37c-.56-1.15-1.14-2.29-1.69-3.44-.17-.35-.37-.66-.79-.66s-.64.29-.81.64c-.56,1.16-1.13,2.32-1.72,3.47a.72.72,0,0,1-.46.34c-1.28.21-2.56.38-3.84.57-.39.06-.76.12-.9.57s.14.68.4.94c.81.79,1.59,1.61,2.44,2.35a1.28,1.28,0,0,1,.45,1.42c-.26,1.22-.43,2.46-.63,3.61a.74.74,0,0,0,1.14.74c1.16-.6,2.32-1.2,3.47-1.83a.79.79,0,0,1,.87,0c1.09.6,2.21,1.17,3.31,1.75.33.18.66.34,1,.08s.32-.62.26-1c-.22-1.28-.45-2.55-.64-3.83a.76.76,0,0,1,.18-.58c.93-1,1.89-1.87,2.84-2.79a.81.81,0,0,0,.33-.84A.8.8,0,0,0,356.58,481.79Zm-1.85,1.56c-.66.66-1.32,1.31-2,1.95a1,1,0,0,0-.31.94c.19,1,.35,2.07.54,3.2l-.85-.44c-.68-.36-1.37-.71-2.06-1.09a.86.86,0,0,0-.9,0l-2.9,1.52c.16-1,.27-1.9.48-2.8a1.47,1.47,0,0,0-.51-1.61c-.68-.62-1.27-1.33-1.9-2,1-.15,2-.32,3-.45a1,1,0,0,0,.83-.61c.44-.93.91-1.85,1.42-2.88.49,1,.94,1.9,1.37,2.8a1.06,1.06,0,0,0,.92.7c1,.12,2,.29,3.1.45A3.15,3.15,0,0,1,354.73,483.35Z" transform="translate(-338.63 -470.21)"/><path class="cls-1" d="M375.82,474.6H360a.73.73,0,0,0-.84.84c0,.86,0,1.71,0,2.56s.23,1,1,1h15.68c.65,0,.9-.26.91-.91v-2.61C376.67,474.87,376.41,474.6,375.82,474.6Zm-.65,2.89H360.6v-1.4h14.57Z" transform="translate(-338.63 -470.21)"/><path class="cls-1" d="M359.72,484.86a.71.71,0,0,0-.6.7.72.72,0,0,0,.62.74h16a1.74,1.74,0,0,0,.32,0,.73.73,0,0,0,0-1.45,2.14,2.14,0,0,0-.36,0H360.13A1.91,1.91,0,0,0,359.72,484.86Z" transform="translate(-338.63 -470.21)"/><path class="cls-1" d="M376,487.77H359.81a.73.73,0,0,0,0,1.46H376a.72.72,0,0,0,.71-.74A.73.73,0,0,0,376,487.77Z" transform="translate(-338.63 -470.21)"/><path class="cls-1" d="M374.18,483.38a2.17,2.17,0,0,0,.36,0,.71.71,0,0,0,.67-.73.73.73,0,0,0-.69-.72H361.59c-.66,0-1,.24-1,.72s.34.74,1,.74Z" transform="translate(-338.63 -470.21)"/><path class="cls-1" d="M374.31,492.16h-7c-.57,0-.91.29-.9.75s.34.71.88.71h7c.58,0,.91-.26.91-.72S374.88,492.16,374.31,492.16Z" transform="translate(-338.63 -470.21)"/><path class="cls-1" d="M364.16,492.16h-2.78a.73.73,0,0,0-.8.75.74.74,0,0,0,.83.71h2.73a.74.74,0,1,0,0-1.46Z" transform="translate(-338.63 -470.21)"/></svg>