<svg id="Слой_1" data-name="Слой 1" xmlns="http://www.w3.org/2000/svg" viewBox="0 0 40.97 27.81"><defs><style>.cls-1{fill:#e31f26;}</style></defs><path class="cls-1" d="M164.1,467.17a.14.14,0,0,0,0-.06l0-.06a3.59,3.59,0,0,0-3.67-3.05H126.91a4.47,4.47,0,0,0-.9.08,3.7,3.7,0,0,0-2.87,3.79v19.95a3.68,3.68,0,0,0,3.85,4h33c2.36,0,3.45-.82,4.15-3.14v0l0,0V467.2Zm-3.75,23H127a2.09,2.09,0,0,1-1.84-.87,2.19,2.19,0,0,1-.39-1.36V467.87a2.07,2.07,0,0,1,2.16-2.23h33.47a2,2,0,0,1,2.13,1.72,2.93,2.93,0,0,1,0,.53v20A2.05,2.05,0,0,1,160.35,490.16Z" transform="translate(-123.14 -464)"/><path class="cls-1" d="M130.27,480h4.8a1.45,1.45,0,0,0,1.48-1.53c0-1.29,0-2.6,0-3.9a1.44,1.44,0,0,0-1.44-1.54c-1.75,0-3.36,0-4.93,0a1.41,1.41,0,0,0-1.4,1.51c0,1.2,0,2.48,0,3.9A1.44,1.44,0,0,0,130.27,480Zm.12-5.31h4.55v3.64h-4.55Z" transform="translate(-123.14 -464)"/><path class="cls-1" d="M143.43,484.39a1.63,1.63,0,0,0-.38,0H129.73a1.46,1.46,0,0,0-.36,0,.75.75,0,0,0-.68.75.76.76,0,0,0,.63.85,2,2,0,0,0,.42,0H143a1.77,1.77,0,0,0,.52-.06.76.76,0,0,0,.53-.83A.74.74,0,0,0,143.43,484.39Z" transform="translate(-123.14 -464)"/><path class="cls-1" d="M158.9,475.47a20.21,20.21,0,0,0-.41-2.28,18.61,18.61,0,0,0-.88-2.33c-.09-.19-.17-.38-.25-.57a.76.76,0,0,0-1.1-.36A.84.84,0,0,0,156,471a2.44,2.44,0,0,0,.14.28l.06.13a11.15,11.15,0,0,1,1.14,3.91,11.39,11.39,0,0,1-1.29,6.51,1.05,1.05,0,0,0-.11.74.78.78,0,0,0,.39.47.77.77,0,0,0,.38.1.88.88,0,0,0,.74-.54,13.12,13.12,0,0,0,1.54-6l.12,0,0-.16C159,476.14,158.94,475.8,158.9,475.47Z" transform="translate(-123.14 -464)"/><path class="cls-1" d="M156.18,476.53a10.07,10.07,0,0,0-1.26-4.88.8.8,0,0,0-1.13-.44.71.71,0,0,0-.37.46,1,1,0,0,0,.11.76,8.36,8.36,0,0,1,0,8.1.85.85,0,0,0,.27,1.22.82.82,0,0,0,.39.11.89.89,0,0,0,.74-.53,10.22,10.22,0,0,0,1.23-4.8Z" transform="translate(-123.14 -464)"/><path class="cls-1" d="M152.57,472.94a.8.8,0,0,0-1.51,0,1.1,1.1,0,0,0,.13.79,5.54,5.54,0,0,1,0,5.5.86.86,0,0,0,.25,1.22.79.79,0,0,0,.38.11.92.92,0,0,0,.76-.53,7.17,7.17,0,0,0,.93-3.56A7.27,7.27,0,0,0,152.57,472.94Z" transform="translate(-123.14 -464)"/><path class="cls-1" d="M149.1,473.75a.83.83,0,0,0-.22,1.19,2.8,2.8,0,0,1,0,3.1,1,1,0,0,0-.14.73.81.81,0,0,0,.37.5.75.75,0,0,0,.4.12.91.91,0,0,0,.74-.5,4.42,4.42,0,0,0,.68-2.38,4.53,4.53,0,0,0-.72-2.44A.79.79,0,0,0,149.1,473.75Z" transform="translate(-123.14 -464)"/><path class="cls-1" d="M150,484.36h-3.86a.79.79,0,0,0-.85.82.8.8,0,0,0,.87.82H150a.82.82,0,1,0,0-1.64Z" transform="translate(-123.14 -464)"/></svg>