<svg id="Слой_1" data-name="Слой 1" xmlns="http://www.w3.org/2000/svg" viewBox="0 0 11.95 11.95"><defs><style>.cls-1{fill:#878888;}</style></defs><path class="cls-1" d="M157.49,373.94a6,6,0,1,0,6,5.95A6,6,0,0,0,157.49,373.94Zm0,10.87a4.89,4.89,0,1,1,4.9-4.88A4.89,4.89,0,0,1,157.48,384.81Z" transform="translate(-151.51 -373.94)"/><path class="cls-1" d="M158.2,379.85a.56.56,0,0,1-.15-.37c0-.91,0-1.82,0-2.72a.56.56,0,1,0-1.1,0v1.53c0,.51,0,1,0,1.53a.72.72,0,0,0,.13.44c.55.58,1.12,1.14,1.69,1.7a.52.52,0,0,0,.77-.07.54.54,0,0,0-.08-.77C159,380.69,158.61,380.28,158.2,379.85Z" transform="translate(-151.51 -373.94)"/></svg>