<svg id="Слой_1" data-name="Слой 1" xmlns="http://www.w3.org/2000/svg" viewBox="0 0 16.87 16.88"><defs><style>.cls-1{fill:#21211e;}</style></defs><path class="cls-1" d="M298.06,429.21h-7.17c-.36,0-.49-.13-.49-.49v-9.58a.43.43,0,0,0-.1-.24,2.37,2.37,0,0,1-.65-1.64c0-.41,0-.83,0-1.24a.77.77,0,0,1,.11-.39l1.75-3a.53.53,0,0,1,.52-.29h12.08a.58.58,0,0,1,.55.31c.57,1,1.16,2,1.74,3a.67.67,0,0,1,.1.29c0,.54,0,1.07,0,1.61a2.22,2.22,0,0,1-.64,1.4.35.35,0,0,0-.08.22v9.56c0,.39-.13.51-.52.51Zm-6.88-9.7v8.93H294v-6.91h8.25v6.91H305v-8.93a2.43,2.43,0,0,1-2.88-.94,2.4,2.4,0,0,1-4,0,2.41,2.41,0,0,1-4,0A2.43,2.43,0,0,1,291.18,419.51Zm10.25,8.94v-6.16h-6.71v6.16Zm-3.71-12.16h-3.29c0,.34,0,.66,0,1a1.62,1.62,0,0,0,1.55,1.61,1.57,1.57,0,0,0,1.67-1.28A9.48,9.48,0,0,0,297.72,416.29Zm.73,0c0,.35,0,.68,0,1a1.63,1.63,0,0,0,1.33,1.58,1.61,1.61,0,0,0,1.81-1,4.7,4.7,0,0,0,.13-1.59Zm-4.75,0h-3.27a9.58,9.58,0,0,0,0,1.2,1.61,1.61,0,0,0,3.15.24A8.65,8.65,0,0,0,293.7,416.3Zm8.79,0c0,.37,0,.74,0,1.1a1.62,1.62,0,0,0,3.15.41,4.77,4.77,0,0,0,.1-1.51Zm-11.79-.79.11,0h2.85c.12,0,.14-.06.17-.14l.69-2.13c0-.05,0-.09,0-.15h-2.31a.29.29,0,0,0-.18.11l-.87,1.48Zm10.9-2.4c0,.08,0,.13.06.19.22.69.45,1.39.66,2.08a.19.19,0,0,0,.22.15h2.89a.18.18,0,0,1,0-.06c-.45-.76-.89-1.52-1.34-2.27a.33.33,0,0,0-.18-.08h-2.3Zm-3.91,2.41v-2.39l-.06,0h-2.16a.22.22,0,0,0-.15.12c-.15.44-.29.88-.43,1.32s-.2.63-.31,1Zm.77,0h3.1a.38.38,0,0,1,0-.1l-.72-2.2c0-.11-.1-.11-.19-.11h-2.18Z" transform="translate(-289.64 -412.34)"/></svg>