<svg id="Слой_1" data-name="Слой 1" xmlns="http://www.w3.org/2000/svg" viewBox="0 0 10.03 13.39"><defs><style>.cls-1{fill:#e3181e;}</style></defs><path class="cls-1" d="M146.86,413.91a1.94,1.94,0,0,1-.33-.23,22.35,22.35,0,0,1-3.47-4.62,8.78,8.78,0,0,1-1-2.56,5,5,0,0,1,9.77-2.26,5.38,5.38,0,0,1-.21,3.27,13.55,13.55,0,0,1-1.43,2.75,23.74,23.74,0,0,1-2.72,3.37,2.48,2.48,0,0,1-.36.28Zm.12-1.37.06-.08a25.51,25.51,0,0,0,2.28-2.9,11.35,11.35,0,0,0,1.26-2.42,4.38,4.38,0,0,0,.19-2.58,3.9,3.9,0,0,0-7.63,1.62,6.91,6.91,0,0,0,.7,2,17.21,17.21,0,0,0,2.06,3.1C146.25,411.7,146.61,412.1,147,412.54Z" transform="translate(-141.97 -400.52)"/><path class="cls-1" d="M147,403.32a2.23,2.23,0,1,1-2.23,2.19A2.23,2.23,0,0,1,147,403.32Zm1.11,2.23a1.12,1.12,0,1,0-2.23,0,1.12,1.12,0,0,0,2.23,0Z" transform="translate(-141.97 -400.52)"/></svg>