<svg id="Слой_1" data-name="Слой 1" xmlns="http://www.w3.org/2000/svg" viewBox="0 0 56.54 50.66"><defs><style>.cls-1{fill:#e31f26;}</style></defs><path class="cls-1" d="M175.09,424.07c-2.41-10.33-4.87-20.66-7.27-31-.65-2.78-1.17-5.59-1.7-8.4a3.69,3.69,0,0,0-3.81-3.15H136.53a3.85,3.85,0,0,0-4.08,3q-1.87,6.21-3.73,12.43-4.95,16.5-9.89,33c-.38,1.28-.19,2,.63,2.17,1.2.25,1.44-.65,1.69-1.51.44-1.52,1-3,1.33-4.55.22-.92.63-1.15,1.55-1.14,9.5,0,19,0,28.5,0h1.29c-.47,1.9-.9,3.61-1.31,5.33-.08.32-.23.77-.08,1,.28.38.86,1,1.11.87a2.17,2.17,0,0,0,1.24-1.17c.91-3.3,1.72-6.63,2.52-10,.15-.63.39-.86,1-.86q6.27,0,12.55,0c.69,0,.89.28,1,.88.3,1.4.61,2.8,1,4.17a1.55,1.55,0,0,0,1,.88,1.26,1.26,0,0,0,1.11-.49A2.45,2.45,0,0,0,175.09,424.07Zm-20.42-2.42a1,1,0,0,1-1.14.9c-9.68,0-19.37,0-29,0-.26,0-.51,0-.86-.07,1.09-3.66,2.15-7.26,3.23-10.86,2.62-8.72,5.26-17.43,7.84-26.16a1.74,1.74,0,0,1,2-1.5c8.4.05,16.8,0,25.2.05,1.87,0,2.11.39,1.66,2.19q-2.69,10.79-5.38,21.57C157,412.39,155.79,417,154.67,421.65Zm3.47-3.95c2.2-8.79,4.37-17.51,6.55-26.22H165l6.18,26.23Z" transform="translate(-118.64 -381.53)"/><path class="cls-1" d="M151.51,393.58c-4.48,0-9,0-13.44,0a2.69,2.69,0,0,0-2.94,2.26c-1.28,4.48-2.57,9-3.84,13.44-.64,2.26.37,3.63,2.69,3.64s4.45,0,6.67,0v0c2.18,0,4.36,0,6.55,0a2.84,2.84,0,0,0,3.08-2.22q2-6.83,3.89-13.66C154.76,395,153.71,393.59,151.51,393.58Zm-3.67,16.85H133.47c.27-.91.51-1.77.75-2.63,1.05-3.65,2.07-7.3,3.15-10.94.1-.33.52-.81.79-.81,4.56-.05,9.11,0,13.8,0C150.56,400.93,149.21,405.66,147.84,410.43Z" transform="translate(-118.64 -381.53)"/><path class="cls-1" d="M147.14,415.3H129.86c-.85,0-1.59.25-1.61,1.19s.72,1.26,1.63,1.26c2.86,0,5.73,0,8.59,0s5.72,0,8.58,0c.89,0,1.66-.2,1.66-1.23S148,415.3,147.14,415.3Z" transform="translate(-118.64 -381.53)"/><path class="cls-1" d="M155.54,388.77h-8.47c-3,0-5.95,0-8.92,0-1.16,0-1.88.93-1.29,1.72a2.15,2.15,0,0,0,1.52.67c2.86.07,5.72,0,8.58,0h8.58c.88,0,1.63-.22,1.59-1.28S156.37,388.76,155.54,388.77Z" transform="translate(-118.64 -381.53)"/></svg>