<svg id="Слой_1" data-name="Слой 1" xmlns="http://www.w3.org/2000/svg" viewBox="0 0 15.83 15.83"><defs><style>.cls-1{fill:#e4252a;}</style></defs><path class="cls-1" d="M157.48,372a7.92,7.92,0,1,0,7.92,7.93A7.91,7.91,0,0,0,157.48,372Zm0,14.53A6.62,6.62,0,1,1,164.1,380,6.62,6.62,0,0,1,157.46,386.53Z" transform="translate(-149.57 -372)"/><path class="cls-1" d="M160.66,376.52a1,1,0,0,0-.64.06c-.11,0-.19.16-.28.25l-2.28,2.3c-.16-.18-.27-.33-.4-.46l-2-2a.57.57,0,0,0-.72-.16.76.76,0,0,0-.33.54c0,1.91,0,3.82,0,5.74a.77.77,0,0,0,.29.53c.38.28.86,0,.86-.54,0-1.3,0-2.61,0-3.92v-.35l.09,0L157,380.2c.4.4.67.4,1.08,0l1.53-1.53.25-.21c0,1.48,0,2.89,0,4.3a.58.58,0,1,0,1.16,0c0-1.91,0-3.83,0-5.74A.7.7,0,0,0,160.66,376.52Z" transform="translate(-149.57 -372)"/></svg>