<svg id="Слой_1" data-name="Слой 1" xmlns="http://www.w3.org/2000/svg" viewBox="0 0 75.71 16.96"><defs><style>.cls-1{fill:#ec6727;}.cls-2{fill:#fff;}</style></defs><rect class="cls-1" width="75.71" height="16.96"/><path class="cls-2" d="M360.73,405.47a.3.3,0,0,1-.24-.09l-.11-.12-1.31-1.82-1.3,1.82-.11.12a.3.3,0,0,1-.24.09h-.69a.21.21,0,0,1-.15-.07.2.2,0,0,1-.07-.16.51.51,0,0,1,0-.09l1.89-2.62-1.8-2.52a.16.16,0,0,1,0-.09.24.24,0,0,1,.22-.22h.7a.29.29,0,0,1,.23.08l.11.13,1.25,1.73,1.23-1.73.11-.13a.33.33,0,0,1,.24-.08h.69a.24.24,0,0,1,.22.22.29.29,0,0,1,0,.09l-1.82,2.55,1.87,2.59a.51.51,0,0,1,0,.09.2.2,0,0,1-.07.16.21.21,0,0,1-.15.07Z" transform="translate(-345.21 -394.05)"/><path class="cls-2" d="M362.68,405.47a.24.24,0,0,1-.16-.07.23.23,0,0,1-.06-.16v-5.32a.2.2,0,0,1,.06-.15.2.2,0,0,1,.16-.07h.66a.19.19,0,0,1,.16.07.21.21,0,0,1,.07.15v3.4l2.3-3.43.11-.11a.29.29,0,0,1,.21-.08h.58a.21.21,0,0,1,.16.07.2.2,0,0,1,.06.15v5.32a.23.23,0,0,1-.06.16.26.26,0,0,1-.16.07h-.67a.21.21,0,0,1-.15-.07.2.2,0,0,1-.07-.16v-3.39l-2.3,3.43-.11.11a.29.29,0,0,1-.22.08Z" transform="translate(-345.21 -394.05)"/><path class="cls-2" d="M372.12,399.7a.24.24,0,0,1,.22.22v.59a.24.24,0,0,1-.22.22h-1.49v4.51a.23.23,0,0,1-.06.16.26.26,0,0,1-.16.07h-.67a.21.21,0,0,1-.15-.07.2.2,0,0,1-.07-.16v-4.51H368a.21.21,0,0,1-.16-.07.2.2,0,0,1-.06-.15v-.59a.2.2,0,0,1,.06-.15.21.21,0,0,1,.16-.07Z" transform="translate(-345.21 -394.05)"/><path class="cls-2" d="M379.53,399.7a.24.24,0,0,1,.22.22v5.32a.2.2,0,0,1-.07.16.21.21,0,0,1-.15.07h-.67a.26.26,0,0,1-.16-.07.23.23,0,0,1-.06-.16v-4.51h-2.49v4.51a.2.2,0,0,1-.07.16.21.21,0,0,1-.15.07h-.67a.26.26,0,0,1-.16-.07.23.23,0,0,1-.06-.16v-5.32a.2.2,0,0,1,.06-.15.21.21,0,0,1,.16-.07Z" transform="translate(-345.21 -394.05)"/><path class="cls-2" d="M383.46,399.7a2.33,2.33,0,0,1,1.55.47,1.7,1.7,0,0,1,.55,1.38,1.72,1.72,0,0,1-.55,1.38,2.28,2.28,0,0,1-1.55.48h-1.31v1.83a.24.24,0,0,1-.23.23h-.66a.24.24,0,0,1-.23-.23v-5.32a.21.21,0,0,1,.07-.15.2.2,0,0,1,.16-.07Zm-1.31,2.68h1.27a1.28,1.28,0,0,0,.75-.19.7.7,0,0,0,.28-.64.69.69,0,0,0-.28-.64,1.36,1.36,0,0,0-.75-.18h-1.27Z" transform="translate(-345.21 -394.05)"/><path class="cls-2" d="M386.26,401.85a3.06,3.06,0,0,1,.18-.87,2,2,0,0,1,.45-.71,2,2,0,0,1,.74-.47,2.82,2.82,0,0,1,1.05-.18,3,3,0,0,1,1.05.17,2.15,2.15,0,0,1,.74.48,2,2,0,0,1,.45.71,2.76,2.76,0,0,1,.19.87c0,.11,0,.22,0,.35V403c0,.13,0,.24,0,.34a3.06,3.06,0,0,1-.18.87,1.87,1.87,0,0,1-.45.71,2.2,2.2,0,0,1-.75.48,3,3,0,0,1-1.05.17,3,3,0,0,1-1.05-.17,2.15,2.15,0,0,1-.74-.48,1.87,1.87,0,0,1-.45-.71,3.06,3.06,0,0,1-.18-.87c0-.1,0-.21,0-.34v-.78C386.25,402.07,386.26,402,386.26,401.85Zm3.73,0a1.36,1.36,0,0,0-2.23-.92,1.28,1.28,0,0,0-.38.92c0,.21,0,.44,0,.7s0,.48,0,.69a1.26,1.26,0,0,0,.38.92,1.5,1.5,0,0,0,1.85,0,1.3,1.3,0,0,0,.38-.92c0-.21,0-.44,0-.69S390,402.1,390,401.89Z" transform="translate(-345.21 -394.05)"/><path class="cls-2" d="M396.52,399.7a.24.24,0,0,1,.22.22v4.52H397a.21.21,0,0,1,.22.22v1.49a.21.21,0,0,1-.22.22h-.67a.2.2,0,0,1-.15-.06.21.21,0,0,1-.07-.16v-.68h-3.37v.68a.21.21,0,0,1-.22.22h-.67a.2.2,0,0,1-.15-.06.21.21,0,0,1-.07-.16v-1.49a.2.2,0,0,1,.06-.15.21.21,0,0,1,.15-.07H392a.5.5,0,0,0,.46-.24,1.49,1.49,0,0,0,.14-.73v-3.55a.2.2,0,0,1,.06-.15.2.2,0,0,1,.16-.07Zm-.89,4.74v-3.71h-2v2.82a1.62,1.62,0,0,1,0,.21,1.51,1.51,0,0,1-.08.49.56.56,0,0,1-.09.19Z" transform="translate(-345.21 -394.05)"/><path class="cls-2" d="M400.94,399.7a.26.26,0,0,1,.2.07.68.68,0,0,1,.11.21l2,5.21a.43.43,0,0,1,0,.05.2.2,0,0,1-.07.16.21.21,0,0,1-.15.07h-.6a.35.35,0,0,1-.23-.07.8.8,0,0,1-.09-.14l-.35-.91h-2.61l-.35.91a.8.8,0,0,1-.09.14.33.33,0,0,1-.23.07h-.59a.24.24,0,0,1-.23-.23.43.43,0,0,1,0-.05l2-5.21a.53.53,0,0,1,.12-.21.22.22,0,0,1,.19-.07Zm.45,3.62-.9-2.35-.91,2.35Z" transform="translate(-345.21 -394.05)"/><path class="cls-2" d="M409.31,399.7a.24.24,0,0,1,.22.22.16.16,0,0,1,0,.09l-1.8,2.52,1.89,2.62a.51.51,0,0,1,0,.09.2.2,0,0,1-.07.16.21.21,0,0,1-.15.07h-.69a.3.3,0,0,1-.24-.09l-.11-.12-1.22-1.7v1.68a.23.23,0,0,1-.06.16.26.26,0,0,1-.16.07h-.67a.21.21,0,0,1-.15-.07.2.2,0,0,1-.07-.16v-1.69l-1.23,1.71-.1.12a.3.3,0,0,1-.24.09h-.7a.21.21,0,0,1-.15-.07.2.2,0,0,1-.07-.16.23.23,0,0,1,0-.09l1.88-2.62-1.8-2.52a.16.16,0,0,1,0-.09.21.21,0,0,1,.07-.15.2.2,0,0,1,.16-.07h.69a.33.33,0,0,1,.24.08l.11.13,1.14,1.6v-1.59a.24.24,0,0,1,.22-.22h.67a.21.21,0,0,1,.16.07.2.2,0,0,1,.06.15v1.58l1.14-1.59.11-.13a.29.29,0,0,1,.23-.08Z" transform="translate(-345.21 -394.05)"/></svg>