<svg xmlns="http://www.w3.org/2000/svg" width="139.79" height="43.79" viewBox="0 0 139.79 43.79">
	<style type="text/css">
		.st1{fill:#d97b16;fill-rule:evenodd;}
		.st0{fill:#265697;fill-rule:evenodd;}
	</style>
	<path class="st0" d="M101.61,1.78C99.37,0.92 95.85,0 91.47,0C80.28,0 72.4,5.75 72.34,14C72.27,20.09 77.96,23.5 82.25,25.53C86.66,27.61 88.14,28.93 88.12,30.79C88.09,33.63 84.6,34.93 81.35,34.93C76.82,34.93 74.41,34.29 70.69,32.71L69.24,32.03L67.65,41.53C70.29,42.71 75.18,43.74 80.26,43.79C92.15,43.79 99.88,38.1 99.96,29.3C100.01,24.47 96.99,20.8 90.46,17.77C86.51,15.81 84.08,14.5 84.11,12.51C84.11,10.74 86.16,8.86 90.59,8.86C94.29,8.8 96.97,9.62 99.06,10.48L100.08,10.97L101.61,1.78"/>
	<path class="st0" d="M116.68,28.12C117.61,25.68 121.19,16.26 121.19,16.26C121.12,16.37 122.11,13.8 122.69,12.21L123.45,15.87C123.45,15.87 125.62,26 126.07,28.12ZM130.63,0.77L121.89,0.77C119.18,0.77 117.15,1.53 115.96,4.29L99.15,43.18L111.04,43.18C111.04,43.18 112.98,37.95 113.42,36.8C114.72,36.8 126.26,36.82 127.91,36.82C128.25,38.31 129.29,43.18 129.29,43.18L139.79,43.18Z"/>
	<path class="st0" d="M49.25,43.16L56.32,0.73L67.64,0.73L60.56,43.16Z"/>
	<path class="st0" d="M39.75,0.76L28.67,29.7L27.49,23.82C25.43,17.04 19,9.7 11.81,6.02L21.95,43.13L33.92,43.11L51.74,0.76L39.75,0.76"/>
	<path class="st1" d="M18.39,0.74L0.14,0.74L0,1.62C14.19,5.13 23.59,13.62 27.49,23.82L23.52,4.32C22.84,1.63 20.85,0.83 18.39,0.74"/>
</svg>