<svg id="Слой_1" data-name="Слой 1" xmlns="http://www.w3.org/2000/svg" viewBox="0 0 18.94 11.25"><defs><style>.cls-1{fill:#e32126;}</style></defs><path class="cls-1" d="M324.54,436.69c-.22.35-.31.52,0,.92.12.17,2.78,2.69,3.17,3.92.17.58-.13.88-.72.88h-2.07c-.78,0-1-.63-2.42-2-1.23-1.18-1.76-1.34-2.07-1.34-.66,0-.54.22-.54,2.57,0,.51-.16.81-1.48.81a8.11,8.11,0,0,1-6.32-3.79c-2.57-3.6-3.27-6.33-3.27-6.88,0-.31.12-.58.71-.58h2.07c.53,0,.73.23.94.8,1,3,2.72,5.53,3.42,5.53.27,0,.39-.12.39-.79v-3.05c-.08-1.4-.83-1.52-.83-2a.5.5,0,0,1,.53-.47h3.26c.43,0,.58.23.58.76V436c0,.44.2.6.33.6s.48-.16,1-.64a17.33,17.33,0,0,0,2.54-4.24.88.88,0,0,1,.9-.58h2.07c.63,0,.76.32.63.76C327.07,433.12,324.54,436.68,324.54,436.69Z" transform="translate(-308.82 -431.16)"/></svg>